RedHatDisplayVF-Black.ufo
<glyph name="exclam" format="2">
  <advance width="258"/>
  <unicode hex="0021"/>
  <outline>
    <contour>
      <point x="67" y="216" type="line"/>
      <point x="191" y="216" type="line"/>
      <point x="211" y="705" type="line"/>
      <point x="47" y="705" type="line"/>
    </contour>
    <contour>
      <point x="129" y="-11" type="curve" smooth="yes"/>
      <point x="180" y="-11"/>
      <point x="222" y="31"/>
      <point x="222" y="82" type="curve" smooth="yes"/>
      <point x="222" y="133"/>
      <point x="180" y="175"/>
      <point x="129" y="175" type="curve" smooth="yes"/>
      <point x="78" y="175"/>
      <point x="36" y="133"/>
      <point x="36" y="82" type="curve" smooth="yes"/>
      <point x="36" y="31"/>
      <point x="78" y="-11"/>
    </contour>
  </outline>
</glyph>
<glyph name="dollar" format="2">
  <advance width="614"/>
  <unicode hex="0024"/>
  <outline>
    <contour>
      <point x="258" y="-66" type="line"/>
      <point x="331" y="-66" type="line"/>
      <point x="331" y="18" type="line"/>
      <point x="494" y="26"/>
      <point x="590" y="104"/>
      <point x="590" y="229" type="curve" smooth="yes"/>
      <point x="590" y="329"/>
      <point x="529" y="383"/>
      <point x="392" y="407" type="curve" smooth="yes"/>
      <point x="331" y="417" type="line"/>
      <point x="331" y="547" type="line"/>
      <point x="384" y="538"/>
      <point x="440" y="516"/>
      <point x="503" y="482" type="curve"/>
      <point x="569" y="606" type="line"/>
      <point x="498" y="648"/>
      <point x="414" y="675"/>
      <point x="331" y="683" type="curve"/>
      <point x="331" y="768" type="line"/>
      <point x="258" y="768" type="line"/>
      <point x="258" y="686" type="line" smooth="yes"/>
      <point x="105" y="680"/>
      <point x="14" y="603"/>
      <point x="14" y="477" type="curve" smooth="yes"/>
      <point x="14" y="369"/>
      <point x="67" y="315"/>
      <point x="196" y="293" type="curve" smooth="yes"/>
      <point x="258" y="281" type="line"/>
      <point x="258" y="153" type="line"/>
      <point x="193" y="164"/>
      <point x="131" y="195"/>
      <point x="80" y="241" type="curve"/>
      <point x="0" y="125" type="line"/>
      <point x="67" y="65"/>
      <point x="158" y="27"/>
      <point x="258" y="19" type="curve"/>
    </contour>
    <contour>
      <point x="258" y="424" type="line"/>
      <point x="245" y="425" type="line" smooth="yes"/>
      <point x="185" y="430"/>
      <point x="164" y="447"/>
      <point x="164" y="490" type="curve" smooth="yes"/>
      <point x="164" y="527"/>
      <point x="200" y="550"/>
      <point x="258" y="553" type="curve" smooth="yes"/>
    </contour>
    <contour>
      <point x="331" y="148" type="curve"/>
      <point x="331" y="276" type="line"/>
      <point x="345" y="274" type="line" smooth="yes"/>
      <point x="417" y="264"/>
      <point x="434" y="253"/>
      <point x="434" y="213" type="curve" smooth="yes"/>
      <point x="434" y="176"/>
      <point x="394" y="152"/>
    </contour>
  </outline>
</glyph>
<glyph name="plus" format="2">
  <advance width="600"/>
  <unicode hex="002B"/>
  <outline>
    <contour>
      <point x="238" y="123" type="line"/>
      <point x="362" y="123" type="line"/>
      <point x="362" y="297" type="line"/>
      <point x="525" y="297" type="line"/>
      <point x="525" y="417" type="line"/>
      <point x="362" y="417" type="line"/>
      <point x="362" y="591" type="line"/>
      <point x="238" y="591" type="line"/>
      <point x="238" y="417" type="line"/>
      <point x="75" y="417" type="line"/>
      <point x="75" y="297" type="line"/>
      <point x="238" y="297" type="line"/>
    </contour>
  </outline>
</glyph>
<glyph name="period" format="2">
  <advance width="250"/>
  <unicode hex="002E"/>
  <outline>
    <contour>
      <point x="125" y="-11" type="curve" smooth="yes"/>
      <point x="176" y="-11"/>
      <point x="218" y="31"/>
      <point x="218" y="82" type="curve" smooth="yes"/>
      <point x="218" y="133"/>
      <point x="176" y="175"/>
      <point x="125" y="175" type="curve" smooth="yes"/>
      <point x="74" y="175"/>
      <point x="32" y="133"/>
      <point x="32" y="82" type="curve" smooth="yes"/>
      <point x="32" y="31"/>
      <point x="74" y="-11"/>
    </contour>
  </outline>
</glyph>
<glyph name="slash" format="2">
  <advance width="534"/>
  <unicode hex="002F"/>
  <outline>
    <contour>
      <point x="-53" y="-209" type="line"/>
      <point x="102" y="-209" type="line"/>
      <point x="503" y="700" type="line"/>
      <point x="349" y="700" type="line"/>
    </contour>
  </outline>
</glyph>
<glyph name="one" format="2">
  <advance width="373"/>
  <unicode hex="0031"/>
  <outline>
    <contour>
      <point x="163" y="0" type="line"/>
      <point x="325" y="0" type="line"/>
      <point x="325" y="700" type="line"/>
      <point x="223" y="700" type="line"/>
      <point x="18" y="618" type="line"/>
      <point x="18" y="478" type="line"/>
      <point x="163" y="536" type="line"/>
    </contour>
  </outline>
</glyph>
<glyph name="nine" format="2">
  <advance width="645"/>
  <unicode hex="0039"/>
  <outline>
    <contour>
      <point x="301" y="711" type="curve" smooth="yes"/>
      <point x="152" y="711"/>
      <point x="42" y="612"/>
      <point x="42" y="479" type="curve" smooth="yes"/>
      <point x="42" y="355"/>
      <point x="139" y="267"/>
      <point x="277" y="267" type="curve" smooth="yes"/>
      <point x="347" y="267"/>
      <point x="412" y="303"/>
      <point x="456" y="366" type="curve"/>
      <point x="456" y="213"/>
      <point x="395" y="127"/>
      <point x="281" y="127" type="curve" smooth="yes"/>
      <point x="225" y="127"/>
      <point x="184" y="142"/>
      <point x="145" y="175" type="curve"/>
      <point x="56" y="65" type="line"/>
      <point x="105" y="19"/>
      <point x="191" y="-11"/>
      <point x="269" y="-11" type="curve" smooth="yes"/>
      <point x="473" y="-11"/>
      <point x="609" y="138"/>
      <point x="609" y="361" type="curve" smooth="yes"/>
      <point x="609" y="570"/>
      <point x="485" y="711"/>
    </contour>
    <contour>
      <point x="303" y="387" type="curve" smooth="yes"/>
      <point x="238" y="387"/>
      <point x="193" y="426"/>
      <point x="193" y="482" type="curve" smooth="yes"/>
      <point x="193" y="538"/>
      <point x="243" y="579"/>
      <point x="309" y="579" type="curve" smooth="yes"/>
      <point x="376" y="579"/>
      <point x="427" y="528"/>
      <point x="447" y="448" type="curve"/>
      <point x="410" y="409"/>
      <point x="360" y="387"/>
    </contour>
  </outline>
</glyph>
<glyph name="less" format="2">
  <advance width="600"/>
  <unicode hex="003C"/>
  <outline>
    <contour>
      <point x="417" y="43" type="line"/>
      <point x="502" y="138" type="line"/>
      <point x="252" y="349" type="line"/>
      <point x="502" y="559" type="line"/>
      <point x="420" y="652" type="line"/>
      <point x="63" y="347" type="line"/>
    </contour>
  </outline>
</glyph>
<glyph name="question" format="2">
  <advance width="534"/>
  <unicode hex="003F"/>
  <outline>
    <contour>
      <point x="176" y="218" type="curve"/>
      <point x="311" y="218" type="line"/>
      <point x="310" y="267"/>
      <point x="323" y="293"/>
      <point x="362" y="319" type="curve" smooth="yes"/>
      <point x="387" y="336" type="line" smooth="yes"/>
      <point x="482" y="401"/>
      <point x="513" y="445"/>
      <point x="513" y="519" type="curve" smooth="yes"/>
      <point x="513" y="628"/>
      <point x="408" y="711"/>
      <point x="269" y="711" type="curve"/>
      <point x="145" y="711"/>
      <point x="41" y="645"/>
      <point x="3" y="542" type="curve"/>
      <point x="134" y="493" type="line"/>
      <point x="154" y="544"/>
      <point x="205" y="577"/>
      <point x="263" y="577" type="curve" smooth="yes"/>
      <point x="316" y="577"/>
      <point x="355" y="548"/>
      <point x="355" y="509" type="curve" smooth="yes"/>
      <point x="355" y="487"/>
      <point x="339" y="465"/>
      <point x="305" y="440" type="curve" smooth="yes"/>
      <point x="251" y="400" type="line" smooth="yes"/>
      <point x="188" y="353"/>
      <point x="171" y="311"/>
    </contour>
    <contour>
      <point x="244" y="-11" type="curve" smooth="yes"/>
      <point x="295" y="-11"/>
      <point x="337" y="31"/>
      <point x="337" y="82" type="curve" smooth="yes"/>
      <point x="337" y="133"/>
      <point x="295" y="175"/>
      <point x="244" y="175" type="curve" smooth="yes"/>
      <point x="193" y="175"/>
      <point x="151" y="133"/>
      <point x="151" y="82" type="curve" smooth="yes"/>
      <point x="151" y="31"/>
      <point x="193" y="-11"/>
    </contour>
  </outline>
</glyph>
<glyph name="at" format="2">
  <advance width="792"/>
  <unicode hex="0040"/>
  <outline>
    <contour>
      <point x="413.6281223297119" y="-144.0" type="curve" smooth="yes"/>
      <point x="479.31406116485596" y="-144.0"/>
      <point x="537.7437553405762" y="-130.31406116485596"/>
      <point x="603.314061164856" y="-101.31406116485596" type="curve"/>
      <point x="573.1156330108643" y="-34.91720485687256" type="line"/>
      <point x="525.7437553405762" y="-56.97502136230469"/>
      <point x="472.68593883514404" y="-68.34689903259277"/>
      <point x="411.68593883514404" y="-68.34689903259277" type="curve" smooth="yes"/>
      <point x="236.94218349456787" y="-68.34689903259277"/>
      <point x="118.45467281341553" y="45.512489318847656"/>
      <point x="118.45467281341553" y="215.25624465942383" type="curve" smooth="yes"/>
      <point x="118.45467281341553" y="386.05781650543213"/>
      <point x="245.1984281539917" y="516.1734495162964"/>
      <point x="412.2562446594238" y="516.1734495162964" type="curve"/>
      <point x="561.7437553405762" y="516.1734495162964"/>
      <point x="673.5453271865845" y="411.7437553405762"/>
      <point x="673.5453271865845" y="273.2562446594238" type="curve" smooth="yes"/>
      <point x="673.5453271865845" y="182.88436698913574"/>
      <point x="635.3718776702881" y="123.3968563079834"/>
      <point x="577.5703058242798" y="123.3968563079834" type="curve" smooth="yes"/>
      <point x="549.7109174728394" y="123.3968563079834"/>
      <point x="535.9671621322632" y="138.1984281539917"/>
      <point x="542.3390398025513" y="165.42969417572021" type="curve" smooth="yes"/>
      <point x="587.2812232971191" y="376.88436698913574" type="line"/>
      <point x="473.91720485687256" y="376.88436698913574" type="line"/>
      <point x="470.2312660217285" y="360.7687339782715" type="line"/>
      <point x="446.5453271865845" y="379.51248931884766"/>
      <point x="415.48751068115234" y="389.88436698913574"/>
      <point x="382.7437553405762" y="389.88436698913574" type="curve" smooth="yes"/>
      <point x="280.1734495162964" y="389.88436698913574"/>
      <point x="200.23126602172852" y="308.5703058242798"/>
      <point x="200.23126602172852" y="203.31406116485596" type="curve" smooth="yes"/>
      <point x="200.23126602172852" y="116.0"/>
      <point x="264.85938835144043" y="46.05781650543213"/>
      <point x="346.85938835144043" y="46.05781650543213" type="curve" smooth="yes"/>
      <point x="384.1734495162964" y="46.05781650543213"/>
      <point x="422.1734495162964" y="59.74375534057617"/>
      <point x="450.5453271865845" y="85.11563301086426" type="curve"/>
      <point x="470.85938835144043" y="57.8015718460083"/>
      <point x="507.8015718460083" y="44.11563301086426"/>
      <point x="559.3718776702881" y="44.11563301086426" type="curve" smooth="yes"/>
      <point x="676.1984281539917" y="44.11563301086426"/>
      <point x="757.1406116485596" y="141.05781650543213"/>
      <point x="757.1406116485596" y="281.1984281539917" type="curve" smooth="yes"/>
      <point x="757.1406116485596" y="451.5703058242798"/>
      <point x="607.1984281539917" y="584.5703058242798"/>
      <point x="415.5703058242798" y="584.5703058242798" type="curve"/>
      <point x="197.74375534057617" y="584.5703058242798"/>
      <point x="37.487510681152344" y="424.2562446594238"/>
      <point x="37.487510681152344" y="207.0" type="curve" smooth="yes"/>
      <point x="37.487510681152344" y="3.685938835144043"/>
      <point x="195.11563301086426" y="-144.0"/>
    </contour>
    <contour>
      <point x="374.68593883514404" y="138.223406791687" type="curve" smooth="yes"/>
      <point x="336.4546728134155" y="138.223406791687"/>
      <point x="308.9671621322632" y="170.0249786376953"/>
      <point x="308.9671621322632" y="213.25624465942383" type="curve" smooth="yes"/>
      <point x="308.9671621322632" y="258.1734495162964"/>
      <point x="345.4546728134155" y="294.4047155380249"/>
      <point x="387.68593883514404" y="294.4047155380249" type="curve" smooth="yes"/>
      <point x="416.11563301086426" y="294.4047155380249"/>
      <point x="436.6031436920166" y="284.66096019744873"/>
      <point x="450.66096019744873" y="265.5453271865845" type="curve"/>
      <point x="434.6031436920166" y="182.6281223297119" type="line" smooth="yes"/>
      <point x="432.91720485687256" y="174.1984281539917"/>
      <point x="431.91720485687256" y="166.45467281341553"/>
      <point x="431.28908252716064" y="158.71091747283936" type="curve"/>
      <point x="413.2312660217285" y="144.28122329711914"/>
      <point x="395.11563301086426" y="138.223406791687"/>
    </contour>
  </outline>
</glyph>
<glyph name="A" format="2">
  <advance width="753"/>
  <unicode hex="0041"/>
  <anchor x="377" y="700" name="top"/>
  <anchor x="760" y="0" name="bottom"/>
  <outline>
    <contour>
      <point x="-7" y="0" type="line"/>
      <point x="172" y="0" type="line"/>
      <point x="237" y="169" type="line"/>
      <point x="510" y="169" type="line"/>
      <point x="574" y="0" type="line"/>
      <point x="760" y="0" type="line"/>
      <point x="477" y="700" type="line"/>
      <point x="280" y="700" type="line"/>
    </contour>
    <contour>
      <point x="289" y="306" type="line"/>
      <point x="375" y="530" type="line"/>
      <point x="459" y="306" type="line"/>
    </contour>
  </outline>
</glyph>
<glyph name="B" format="2">
  <advance width="705"/>
  <unicode hex="0042"/>
  <outline>
    <contour>
      <point x="58" y="0" type="line"/>
      <point x="422" y="0" type="line" smooth="yes"/>
      <point x="570" y="0"/>
      <point x="670" y="83"/>
      <point x="670" y="206" type="curve" smooth="yes"/>
      <point x="670" y="270"/>
      <point x="630" y="326"/>
      <point x="568" y="359" type="curve"/>
      <point x="617" y="394"/>
      <point x="648" y="445"/>
      <point x="648" y="503" type="curve" smooth="yes"/>
      <point x="648" y="619"/>
      <point x="548" y="700"/>
      <point x="405" y="700" type="curve" smooth="yes"/>
      <point x="58" y="700" type="line"/>
    </contour>
    <contour>
      <point x="230" y="421" type="line"/>
      <point x="230" y="559" type="line"/>
      <point x="394" y="559" type="line" smooth="yes"/>
      <point x="444" y="559"/>
      <point x="476" y="532"/>
      <point x="476" y="490" type="curve" smooth="yes"/>
      <point x="476" y="448"/>
      <point x="444" y="421"/>
      <point x="394" y="421" type="curve" smooth="yes"/>
    </contour>
    <contour>
      <point x="230" y="141" type="line"/>
      <point x="230" y="289" type="line"/>
      <point x="409" y="289" type="line" smooth="yes"/>
      <point x="462" y="289"/>
      <point x="496" y="260"/>
      <point x="496" y="215" type="curve" smooth="yes"/>
      <point x="496" y="170"/>
      <point x="462" y="141"/>
      <point x="409" y="141" type="curve" smooth="yes"/>
    </contour>
  </outline>
</glyph>
<glyph name="C" format="2">
  <advance width="716"/>
  <unicode hex="0043"/>
  <anchor x="408" y="700" name="top"/>
  <anchor x="410" y="0" name="bottom"/>
  <outline>
    <contour>
      <point x="409" y="-10" type="curve" smooth="yes"/>
      <point x="521" y="-10"/>
      <point x="636" y="43"/>
      <point x="701" y="125" type="curve"/>
      <point x="588" y="236" type="line"/>
      <point x="541" y="178"/>
      <point x="483" y="149"/>
      <point x="415" y="149" type="curve" smooth="yes"/>
      <point x="298" y="149"/>
      <point x="210" y="236"/>
      <point x="210" y="350" type="curve" smooth="yes"/>
      <point x="210" y="466"/>
      <point x="296" y="553"/>
      <point x="409" y="553" type="curve" smooth="yes"/>
      <point x="480" y="553"/>
      <point x="541" y="522"/>
      <point x="590" y="460" type="curve"/>
      <point x="706" y="574" type="line"/>
      <point x="642" y="657"/>
      <point x="525" y="711"/>
      <point x="409" y="711" type="curve" smooth="yes"/>
      <point x="197" y="711"/>
      <point x="33" y="554"/>
      <point x="33" y="350" type="curve" smooth="yes"/>
      <point x="33" y="147"/>
      <point x="196" y="-10"/>
    </contour>
  </outline>
</glyph>
<glyph name="D" format="2">
  <advance width="745"/>
  <unicode hex="0044"/>
  <anchor x="373" y="700" name="top"/>
  <outline>
    <contour>
      <point x="230" y="152" type="line"/>
      <point x="230" y="548" type="line"/>
      <point x="338" y="548" type="line" smooth="yes"/>
      <point x="448" y="548"/>
      <point x="534" y="460"/>
      <point x="534" y="348" type="curve" smooth="yes"/>
      <point x="534" y="238"/>
      <point x="448" y="152"/>
      <point x="338" y="152" type="curve" smooth="yes"/>
    </contour>
    <contour>
      <point x="58" y="0" type="line"/>
      <point x="342" y="0" type="line" smooth="yes"/>
      <point x="549" y="0"/>
      <point x="712" y="154"/>
      <point x="712" y="348" type="curve" smooth="yes"/>
      <point x="712" y="545"/>
      <point x="549" y="700"/>
      <point x="342" y="700" type="curve" smooth="yes"/>
      <point x="58" y="700" type="line"/>
    </contour>
  </outline>
</glyph>
<glyph name="E" format="2">
  <advance width="657"/>
  <unicode hex="0045"/>
  <anchor x="346" y="700" name="top"/>
  <anchor x="614" y="0" name="bottom"/>
  <outline>
    <contour>
      <point x="58" y="0" type="line"/>
      <point x="614" y="0" type="line"/>
      <point x="614" y="149" type="line"/>
      <point x="230" y="149" type="line"/>
      <point x="230" y="281" type="line"/>
      <point x="481" y="281" type="line"/>
      <point x="481" y="425" type="line"/>
      <point x="230" y="425" type="line"/>
      <point x="230" y="551" type="line"/>
      <point x="610" y="551" type="line"/>
      <point x="610" y="700" type="line"/>
      <point x="58" y="700" type="line"/>
    </contour>
  </outline>
</glyph>
<glyph name="F" format="2">
  <advance width="652"/>
  <unicode hex="0046"/>
  <outline>
    <contour>
      <point x="58" y="0" type="line"/>
      <point x="230" y="0" type="line"/>
      <point x="230" y="276" type="line"/>
      <point x="486" y="276" type="line"/>
      <point x="486" y="420" type="line"/>
      <point x="230" y="420" type="line"/>
      <point x="230" y="551" type="line"/>
      <point x="614" y="551" type="line"/>
      <point x="614" y="700" type="line"/>
      <point x="58" y="700" type="line"/>
    </contour>
  </outline>
</glyph>
<glyph name="G" format="2">
  <advance width="796"/>
  <unicode hex="0047"/>
  <anchor x="406" y="700" name="top"/>
  <anchor x="410" y="0" name="bottom"/>
  <outline>
    <contour>
      <point x="408" y="-11" type="curve" smooth="yes"/>
      <point x="613" y="-11"/>
      <point x="763" y="143"/>
      <point x="763" y="354" type="curve" smooth="yes"/>
      <point x="763" y="404" type="line"/>
      <point x="388" y="404" type="line"/>
      <point x="388" y="255" type="line"/>
      <point x="577" y="255" type="line"/>
      <point x="557" y="190"/>
      <point x="492" y="145"/>
      <point x="411" y="145" type="curve" smooth="yes"/>
      <point x="296" y="145"/>
      <point x="210" y="233"/>
      <point x="210" y="350" type="curve" smooth="yes"/>
      <point x="210" y="466"/>
      <point x="293" y="553"/>
      <point x="405" y="553" type="curve" smooth="yes"/>
      <point x="475" y="553"/>
      <point x="535" y="523"/>
      <point x="581" y="465" type="curve"/>
      <point x="702" y="574" type="line"/>
      <point x="635" y="659"/>
      <point x="524" y="711"/>
      <point x="405" y="711" type="curve" smooth="yes"/>
      <point x="196" y="711"/>
      <point x="33" y="553"/>
      <point x="33" y="350" type="curve" smooth="yes"/>
      <point x="33" y="147"/>
      <point x="197" y="-11"/>
    </contour>
  </outline>
</glyph>
<glyph name="I" format="2">
  <advance width="288"/>
  <unicode hex="0049"/>
  <anchor x="144" y="700" name="top"/>
  <anchor x="230" y="0" name="bottom"/>
  <outline>
    <contour>
      <point x="58" y="0" type="line"/>
      <point x="230" y="0" type="line"/>
      <point x="230" y="700" type="line"/>
      <point x="58" y="700" type="line"/>
    </contour>
  </outline>
</glyph>
<glyph name="J" format="2">
  <advance width="658"/>
  <unicode hex="004A"/>
  <anchor x="527" y="700" name="top"/>
  <outline>
    <contour>
      <point x="311" y="-10" type="curve" smooth="yes"/>
      <point x="490" y="-10"/>
      <point x="610" y="105"/>
      <point x="610" y="275" type="curve" smooth="yes"/>
      <point x="610" y="700" type="line"/>
      <point x="438" y="700" type="line"/>
      <point x="438" y="280" type="line" smooth="yes"/>
      <point x="438" y="200"/>
      <point x="387" y="146"/>
      <point x="312" y="146" type="curve" smooth="yes"/>
      <point x="245" y="146"/>
      <point x="202" y="183"/>
      <point x="176" y="265" type="curve"/>
      <point x="17" y="206" type="line"/>
      <point x="59" y="66"/>
      <point x="163" y="-10"/>
    </contour>
  </outline>
</glyph>
<glyph name="L" format="2">
  <advance width="637"/>
  <unicode hex="004C"/>
  <anchor x="143" y="700" name="top"/>
  <anchor x="352" y="0" name="bottom"/>
  <outline>
    <contour>
      <point x="58" y="0" type="line"/>
      <point x="599" y="0" type="line"/>
      <point x="599" y="152" type="line"/>
      <point x="230" y="152" type="line"/>
      <point x="230" y="700" type="line"/>
      <point x="58" y="700" type="line"/>
    </contour>
  </outline>
</glyph>
<glyph name="M" format="2">
  <advance width="896"/>
  <unicode hex="004D"/>
  <outline>
    <contour>
      <point x="58" y="0" type="line"/>
      <point x="216" y="0" type="line"/>
      <point x="216" y="479" type="line"/>
      <point x="446" y="50" type="line"/>
      <point x="676" y="477" type="line"/>
      <point x="676" y="0" type="line"/>
      <point x="838" y="0" type="line"/>
      <point x="838" y="700" type="line"/>
      <point x="621" y="700" type="line"/>
      <point x="448" y="370" type="line"/>
      <point x="275" y="700" type="line"/>
      <point x="58" y="700" type="line"/>
    </contour>
  </outline>
</glyph>
<glyph name="N" format="2">
  <advance width="758"/>
  <unicode hex="004E"/>
  <anchor x="379" y="700" name="top"/>
  <anchor x="379" y="0" name="bottom"/>
  <outline>
    <contour>
      <point x="58" y="0" type="line"/>
      <point x="220" y="0" type="line"/>
      <point x="220" y="422" type="line"/>
      <point x="548" y="0" type="line"/>
      <point x="700" y="0" type="line"/>
      <point x="700" y="700" type="line"/>
      <point x="538" y="700" type="line"/>
      <point x="538" y="294" type="line"/>
      <point x="220" y="700" type="line"/>
      <point x="58" y="700" type="line"/>
    </contour>
  </outline>
</glyph>
<glyph name="O" format="2">
  <advance width="814"/>
  <unicode hex="004F"/>
  <anchor x="407" y="700" name="top"/>
  <outline>
    <contour>
      <point x="407" y="-11" type="curve" smooth="yes"/>
      <point x="617" y="-11"/>
      <point x="781" y="148"/>
      <point x="781" y="350" type="curve" smooth="yes"/>
      <point x="781" y="552"/>
      <point x="617" y="711"/>
      <point x="407" y="711" type="curve" smooth="yes"/>
      <point x="197" y="711"/>
      <point x="33" y="552"/>
      <point x="33" y="350" type="curve" smooth="yes"/>
      <point x="33" y="148"/>
      <point x="197" y="-11"/>
    </contour>
    <contour>
      <point x="407" y="147" type="curve" smooth="yes"/>
      <point x="295" y="147"/>
      <point x="210" y="234"/>
      <point x="210" y="350" type="curve" smooth="yes"/>
      <point x="210" y="466"/>
      <point x="295" y="553"/>
      <point x="407" y="553" type="curve" smooth="yes"/>
      <point x="519" y="553"/>
      <point x="604" y="466"/>
      <point x="604" y="350" type="curve" smooth="yes"/>
      <point x="604" y="234"/>
      <point x="519" y="147"/>
    </contour>
  </outline>
</glyph>
<glyph name="P" format="2">
  <advance width="695"/>
  <unicode hex="0050"/>
  <outline>
    <contour>
      <point x="58" y="0" type="line"/>
      <point x="230" y="0" type="line"/>
      <point x="230" y="251" type="line"/>
      <point x="427" y="251" type="line" smooth="yes"/>
      <point x="563" y="251"/>
      <point x="665" y="346"/>
      <point x="665" y="473" type="curve" smooth="yes"/>
      <point x="665" y="604"/>
      <point x="565" y="700"/>
      <point x="427" y="700" type="curve" smooth="yes"/>
      <point x="58" y="700" type="line"/>
    </contour>
    <contour>
      <point x="230" y="393" type="line"/>
      <point x="230" y="553" type="line"/>
      <point x="407" y="553" type="line" smooth="yes"/>
      <point x="457" y="553"/>
      <point x="491" y="520"/>
      <point x="491" y="472" type="curve" smooth="yes"/>
      <point x="491" y="425"/>
      <point x="457" y="393"/>
      <point x="407" y="393" type="curve" smooth="yes"/>
    </contour>
  </outline>
</glyph>
<glyph name="T" format="2">
  <advance width="666"/>
  <unicode hex="0054"/>
  <anchor x="333" y="700" name="top"/>
  <anchor x="333" y="0" name="bottom"/>
  <outline>
    <contour>
      <point x="247" y="0" type="line"/>
      <point x="419" y="0" type="line"/>
      <point x="419" y="548" type="line"/>
      <point x="648" y="548" type="line"/>
      <point x="648" y="700" type="line"/>
      <point x="18" y="700" type="line"/>
      <point x="18" y="548" type="line"/>
      <point x="247" y="548" type="line"/>
    </contour>
  </outline>
</glyph>
<glyph name="U" format="2">
  <advance width="733"/>
  <unicode hex="0055"/>
  <anchor x="367" y="700" name="top"/>
  <anchor x="450" y="0" name="bottom"/>
  <outline>
    <contour>
      <point x="366" y="-10" type="curve" smooth="yes"/>
      <point x="559" y="-10"/>
      <point x="685" y="114"/>
      <point x="685" y="305" type="curve" smooth="yes"/>
      <point x="685" y="700" type="line"/>
      <point x="513" y="700" type="line"/>
      <point x="513" y="305" type="line" smooth="yes"/>
      <point x="513" y="210"/>
      <point x="456" y="149"/>
      <point x="367" y="149" type="curve" smooth="yes"/>
      <point x="278" y="149"/>
      <point x="220" y="210"/>
      <point x="220" y="305" type="curve" smooth="yes"/>
      <point x="220" y="700" type="line"/>
      <point x="48" y="700" type="line"/>
      <point x="48" y="305" type="line" smooth="yes"/>
      <point x="48" y="112"/>
      <point x="172" y="-10"/>
    </contour>
  </outline>
</glyph>
<glyph name="V" format="2">
  <advance width="753"/>
  <unicode hex="0056"/>
  <outline>
    <contour>
      <point x="276" y="0" type="line"/>
      <point x="473" y="0" type="line"/>
      <point x="760" y="700" type="line"/>
      <point x="581" y="700" type="line"/>
      <point x="378" y="179" type="line"/>
      <point x="179" y="700" type="line"/>
      <point x="-7" y="700" type="line"/>
    </contour>
  </outline>
</glyph>
<glyph name="W" format="2">
  <advance width="969"/>
  <unicode hex="0057"/>
  <anchor x="483" y="700" name="top"/>
  <outline>
    <contour>
      <point x="179" y="0" type="line"/>
      <point x="361" y="0" type="line"/>
      <point x="485" y="446" type="line"/>
      <point x="608" y="0" type="line"/>
      <point x="790" y="0" type="line"/>
      <point x="946" y="700" type="line"/>
      <point x="775" y="700" type="line"/>
      <point x="690" y="268" type="line"/>
      <point x="568" y="700" type="line"/>
      <point x="407" y="700" type="line"/>
      <point x="285" y="268" type="line"/>
      <point x="200" y="700" type="line"/>
      <point x="23" y="700" type="line"/>
    </contour>
  </outline>
</glyph>
<glyph name="X" format="2">
  <advance width="724"/>
  <unicode hex="0058"/>
  <outline>
    <contour>
      <point x="-5" y="0" type="line"/>
      <point x="192" y="0" type="line"/>
      <point x="358" y="234" type="line"/>
      <point x="525" y="0" type="line"/>
      <point x="730" y="0" type="line"/>
      <point x="460" y="361" type="line"/>
      <point x="709" y="700" type="line"/>
      <point x="512" y="700" type="line"/>
      <point x="362" y="489" type="line"/>
      <point x="212" y="700" type="line"/>
      <point x="7" y="700" type="line"/>
      <point x="260" y="361" type="line"/>
    </contour>
  </outline>
</glyph>
<glyph name="grave" format="2">
  <advance width="600"/>
  <unicode hex="0060"/>
  <anchor x="320" y="529" name="_top"/>
  <outline>
    <contour>
      <point x="266" y="611" type="line"/>
      <point x="396" y="611" type="line"/>
      <point x="309" y="747" type="line"/>
      <point x="127" y="747" type="line"/>
    </contour>
  </outline>
</glyph>
<glyph name="a" format="2">
  <advance width="571"/>
  <unicode hex="0061"/>
  <note>
Version created Mon Aug  6 16:22:34 2018
</note>
  <anchor x="278" y="529" name="top"/>
  <anchor x="525" y="0" name="bottom"/>
  <outline>
    <contour>
      <point x="219" y="-9" type="curve" smooth="yes"/>
      <point x="276" y="-9"/>
      <point x="322" y="3"/>
      <point x="365" y="32" type="curve"/>
      <point x="365" y="0" type="line"/>
      <point x="525" y="0" type="line"/>
      <point x="525" y="339" type="line" smooth="yes"/>
      <point x="525" y="466"/>
      <point x="440" y="539"/>
      <point x="293" y="539" type="curve" smooth="yes"/>
      <point x="212" y="539"/>
      <point x="132" y="520"/>
      <point x="46" y="481" type="curve"/>
      <point x="104" y="362" type="line"/>
      <point x="173" y="391"/>
      <point x="222" y="404"/>
      <point x="264" y="404" type="curve" smooth="yes"/>
      <point x="331" y="404"/>
      <point x="365" y="378"/>
      <point x="365" y="325" type="curve" smooth="yes"/>
      <point x="365" y="299" type="line"/>
      <point x="326" y="309"/>
      <point x="286" y="314"/>
      <point x="245" y="314" type="curve" smooth="yes"/>
      <point x="107" y="314"/>
      <point x="27" y="256"/>
      <point x="27" y="155" type="curve" smooth="yes"/>
      <point x="27" y="58"/>
      <point x="106" y="-9"/>
    </contour>
    <contour>
      <point x="181" y="158" type="curve" smooth="yes"/>
      <point x="181" y="191"/>
      <point x="213" y="210"/>
      <point x="269" y="210" type="curve" smooth="yes"/>
      <point x="302" y="210"/>
      <point x="334" y="206"/>
      <point x="365" y="198" type="curve"/>
      <point x="365" y="130" type="line"/>
      <point x="337" y="113"/>
      <point x="303" y="105"/>
      <point x="264" y="105" type="curve" smooth="yes"/>
      <point x="212" y="105"/>
      <point x="181" y="125"/>
    </contour>
  </outline>
</glyph>
<glyph name="b" format="2">
  <advance width="648"/>
  <unicode hex="0062"/>
  <outline>
    <contour>
      <point x="50" y="0" type="line"/>
      <point x="210" y="0" type="line"/>
      <point x="210" y="30" type="line"/>
      <point x="250" y="6"/>
      <point x="297" y="-7"/>
      <point x="347" y="-7" type="curve" smooth="yes"/>
      <point x="501" y="-7"/>
      <point x="622" y="112"/>
      <point x="622" y="264" type="curve" smooth="yes"/>
      <point x="622" y="416"/>
      <point x="503" y="536"/>
      <point x="352" y="536" type="curve" smooth="yes"/>
      <point x="301" y="536"/>
      <point x="253" y="521"/>
      <point x="212" y="492" type="curve"/>
      <point x="212" y="725" type="line"/>
      <point x="50" y="700" type="line"/>
    </contour>
    <contour>
      <point x="324" y="130" type="curve" smooth="yes"/>
      <point x="280" y="130"/>
      <point x="240" y="145"/>
      <point x="212" y="171" type="curve"/>
      <point x="212" y="356" type="line"/>
      <point x="241" y="384"/>
      <point x="279" y="398"/>
      <point x="324" y="398" type="curve" smooth="yes"/>
      <point x="402" y="398"/>
      <point x="463" y="340"/>
      <point x="463" y="264" type="curve" smooth="yes"/>
      <point x="463" y="188"/>
      <point x="403" y="130"/>
    </contour>
  </outline>
</glyph>
<glyph name="d" format="2">
  <advance width="648"/>
  <unicode hex="0064"/>
  <outline>
    <contour>
      <point x="296" y="-7" type="curve" smooth="yes"/>
      <point x="348" y="-7"/>
      <point x="397" y="9"/>
      <point x="438" y="39" type="curve"/>
      <point x="438" y="0" type="line"/>
      <point x="598" y="0" type="line"/>
      <point x="598" y="725" type="line"/>
      <point x="436" y="700" type="line"/>
      <point x="436" y="501" type="line"/>
      <point x="396" y="524"/>
      <point x="350" y="536"/>
      <point x="301" y="536" type="curve" smooth="yes"/>
      <point x="147" y="536"/>
      <point x="26" y="417"/>
      <point x="26" y="265" type="curve" smooth="yes"/>
      <point x="26" y="113"/>
      <point x="145" y="-7"/>
    </contour>
    <contour>
      <point x="324" y="131" type="curve" smooth="yes"/>
      <point x="246" y="131"/>
      <point x="185" y="189"/>
      <point x="185" y="265" type="curve" smooth="yes"/>
      <point x="185" y="341"/>
      <point x="245" y="399"/>
      <point x="324" y="399" type="curve" smooth="yes"/>
      <point x="368" y="399"/>
      <point x="408" y="384"/>
      <point x="436" y="358" type="curve"/>
      <point x="436" y="173" type="line"/>
      <point x="407" y="145"/>
      <point x="369" y="131"/>
    </contour>
  </outline>
</glyph>
<glyph name="e" format="2">
  <advance width="595"/>
  <unicode hex="0065"/>
  <anchor x="300" y="529" name="top"/>
  <anchor x="402" y="0" name="bottom"/>
  <outline>
    <contour>
      <point x="314" y="-10" type="curve" smooth="yes"/>
      <point x="402" y="-10"/>
      <point x="468" y="14"/>
      <point x="535" y="70" type="curve"/>
      <point x="428" y="165" type="line"/>
      <point x="403" y="139"/>
      <point x="366" y="125"/>
      <point x="322" y="125" type="curve" smooth="yes"/>
      <point x="261" y="125"/>
      <point x="213" y="159"/>
      <point x="192" y="209" type="curve"/>
      <point x="569" y="209" type="line"/>
      <point x="569" y="249" type="line" smooth="yes"/>
      <point x="569" y="416"/>
      <point x="457" y="538"/>
      <point x="302" y="538" type="curve" smooth="yes"/>
      <point x="147" y="538"/>
      <point x="26" y="418"/>
      <point x="26" y="264" type="curve" smooth="yes"/>
      <point x="26" y="110"/>
      <point x="152" y="-10"/>
    </contour>
    <contour>
      <point x="189" y="322" type="line"/>
      <point x="205" y="375"/>
      <point x="245" y="406"/>
      <point x="299" y="406" type="curve" smooth="yes"/>
      <point x="351" y="406"/>
      <point x="393" y="373"/>
      <point x="410" y="322" type="curve"/>
    </contour>
  </outline>
</glyph>
<glyph name="f" format="2">
  <advance width="453"/>
  <unicode hex="0066"/>
  <outline>
    <contour>
      <point x="134" y="0" type="line"/>
      <point x="296" y="0" type="line"/>
      <point x="296" y="394" type="line"/>
      <point x="435" y="394" type="line"/>
      <point x="435" y="529" type="line"/>
      <point x="296" y="529" type="line"/>
      <point x="296" y="558" type="line" smooth="yes"/>
      <point x="296" y="598"/>
      <point x="321" y="617"/>
      <point x="371" y="617" type="curve" smooth="yes"/>
      <point x="392" y="617"/>
      <point x="410" y="615"/>
      <point x="435" y="610" type="curve"/>
      <point x="435" y="744" type="line"/>
      <point x="413" y="750"/>
      <point x="377" y="754"/>
      <point x="349" y="754" type="curve" smooth="yes"/>
      <point x="210" y="754"/>
      <point x="134" y="686"/>
      <point x="134" y="561" type="curve" smooth="yes"/>
      <point x="134" y="529" type="line"/>
      <point x="18" y="529" type="line"/>
      <point x="18" y="394" type="line"/>
      <point x="134" y="394" type="line"/>
    </contour>
  </outline>
</glyph>
<glyph name="g" format="2">
  <advance width="644"/>
  <unicode hex="0067"/>
  <note>
Version created Sun Jan 13 16:53:00 2019
</note>
  <anchor x="320" y="529" name="top"/>
  <outline>
    <contour>
      <point x="320" y="-214" type="curve" smooth="yes"/>
      <point x="497" y="-214"/>
      <point x="594" y="-135"/>
      <point x="594" y="8" type="curve" smooth="yes"/>
      <point x="594" y="529" type="line"/>
      <point x="434" y="529" type="line"/>
      <point x="434" y="501" type="line"/>
      <point x="395" y="524"/>
      <point x="349" y="536"/>
      <point x="301" y="536" type="curve" smooth="yes"/>
      <point x="147" y="536"/>
      <point x="26" y="418"/>
      <point x="26" y="268" type="curve" smooth="yes"/>
      <point x="26" y="117"/>
      <point x="145" y="-2"/>
      <point x="295" y="-2" type="curve" smooth="yes"/>
      <point x="345" y="-2"/>
      <point x="392" y="13"/>
      <point x="432" y="40" type="curve"/>
      <point x="432" y="10" type="line" smooth="yes"/>
      <point x="432" y="-51"/>
      <point x="393" y="-82"/>
      <point x="317" y="-82" type="curve" smooth="yes"/>
      <point x="261" y="-82"/>
      <point x="205" y="-69"/>
      <point x="148" y="-42" type="curve"/>
      <point x="94" y="-168" type="line"/>
      <point x="157" y="-198"/>
      <point x="235" y="-214"/>
    </contour>
    <contour>
      <point x="323" y="134" type="curve" smooth="yes"/>
      <point x="245" y="134"/>
      <point x="185" y="192"/>
      <point x="185" y="268" type="curve" smooth="yes"/>
      <point x="185" y="342"/>
      <point x="246" y="399"/>
      <point x="324" y="399" type="curve" smooth="yes"/>
      <point x="366" y="399"/>
      <point x="404" y="384"/>
      <point x="432" y="360" type="curve"/>
      <point x="432" y="173" type="line"/>
      <point x="404" y="147"/>
      <point x="367" y="134"/>
    </contour>
  </outline>
</glyph>
<glyph name="k" format="2">
  <advance width="597"/>
  <unicode hex="006B"/>
  <anchor x="303" y="0" name="bottom"/>
  <outline>
    <contour>
      <point x="50" y="0" type="line"/>
      <point x="212" y="0" type="line"/>
      <point x="212" y="237" type="line"/>
      <point x="415" y="0" type="line"/>
      <point x="620" y="0" type="line"/>
      <point x="369" y="290" type="line"/>
      <point x="604" y="529" type="line"/>
      <point x="423" y="529" type="line"/>
      <point x="212" y="313" type="line"/>
      <point x="212" y="725" type="line"/>
      <point x="50" y="700" type="line"/>
    </contour>
  </outline>
</glyph>
<glyph name="l" format="2">
  <advance width="262"/>
  <unicode hex="006C"/>
  <anchor x="131" y="700" name="top"/>
  <anchor x="131" y="0" name="bottom"/>
  <outline>
    <contour>
      <point x="50" y="0" type="line"/>
      <point x="212" y="0" type="line"/>
      <point x="212" y="725" type="line"/>
      <point x="50" y="700" type="line"/>
    </contour>
  </outline>
</glyph>
<glyph name="m" format="2">
  <advance width="924"/>
  <unicode hex="006D"/>
  <outline>
    <contour>
      <point x="50" y="0" type="line"/>
      <point x="212" y="0" type="line"/>
      <point x="212" y="362" type="line"/>
      <point x="232" y="387"/>
      <point x="261" y="400"/>
      <point x="297" y="400" type="curve" smooth="yes"/>
      <point x="349" y="400"/>
      <point x="383" y="362"/>
      <point x="383" y="304" type="curve" smooth="yes"/>
      <point x="383" y="0" type="line"/>
      <point x="545" y="0" type="line"/>
      <point x="545" y="326" type="line" smooth="yes"/>
      <point x="545" y="338"/>
      <point x="544" y="349"/>
      <point x="543" y="360" type="curve"/>
      <point x="564" y="386"/>
      <point x="594" y="400"/>
      <point x="630" y="400" type="curve" smooth="yes"/>
      <point x="682" y="400"/>
      <point x="716" y="362"/>
      <point x="716" y="304" type="curve" smooth="yes"/>
      <point x="716" y="0" type="line"/>
      <point x="878" y="0" type="line"/>
      <point x="878" y="326" type="line" smooth="yes"/>
      <point x="878" y="451"/>
      <point x="793" y="539"/>
      <point x="673" y="539" type="curve" smooth="yes"/>
      <point x="603" y="539"/>
      <point x="544" y="513"/>
      <point x="501" y="466" type="curve"/>
      <point x="465" y="512"/>
      <point x="410" y="539"/>
      <point x="344" y="539" type="curve" smooth="yes"/>
      <point x="294" y="539"/>
      <point x="249" y="524"/>
      <point x="212" y="495" type="curve"/>
      <point x="212" y="529" type="line"/>
      <point x="50" y="529" type="line"/>
    </contour>
  </outline>
</glyph>
<glyph name="o" format="2">
  <advance width="626"/>
  <unicode hex="006F"/>
  <anchor x="313" y="529" name="top"/>
  <outline>
    <contour>
      <point x="313" y="-10" type="curve" smooth="yes"/>
      <point x="474" y="-10"/>
      <point x="600" y="110"/>
      <point x="600" y="264" type="curve" smooth="yes"/>
      <point x="600" y="418"/>
      <point x="474" y="539"/>
      <point x="313" y="539" type="curve" smooth="yes"/>
      <point x="152" y="539"/>
      <point x="26" y="418"/>
      <point x="26" y="264" type="curve" smooth="yes"/>
      <point x="26" y="110"/>
      <point x="152" y="-10"/>
    </contour>
    <contour>
      <point x="313" y="130" type="curve" smooth="yes"/>
      <point x="240" y="130"/>
      <point x="184" y="189"/>
      <point x="184" y="264" type="curve" smooth="yes"/>
      <point x="184" y="340"/>
      <point x="241" y="399"/>
      <point x="313" y="399" type="curve" smooth="yes"/>
      <point x="385" y="399"/>
      <point x="442" y="340"/>
      <point x="442" y="264" type="curve" smooth="yes"/>
      <point x="442" y="189"/>
      <point x="386" y="130"/>
    </contour>
  </outline>
</glyph>
<glyph name="p" format="2">
  <advance width="648"/>
  <unicode hex="0070"/>
  <outline>
    <contour>
      <point x="50" y="-204" type="line"/>
      <point x="212" y="-204" type="line"/>
      <point x="212" y="28" type="line"/>
      <point x="252" y="5"/>
      <point x="298" y="-7"/>
      <point x="347" y="-7" type="curve" smooth="yes"/>
      <point x="501" y="-7"/>
      <point x="622" y="112"/>
      <point x="622" y="264" type="curve" smooth="yes"/>
      <point x="622" y="416"/>
      <point x="503" y="536"/>
      <point x="352" y="536" type="curve" smooth="yes"/>
      <point x="300" y="536"/>
      <point x="251" y="520"/>
      <point x="210" y="490" type="curve"/>
      <point x="210" y="529" type="line"/>
      <point x="50" y="529" type="line"/>
    </contour>
    <contour>
      <point x="324" y="130" type="curve" smooth="yes"/>
      <point x="280" y="130"/>
      <point x="240" y="145"/>
      <point x="212" y="171" type="curve"/>
      <point x="212" y="356" type="line"/>
      <point x="241" y="384"/>
      <point x="279" y="398"/>
      <point x="324" y="398" type="curve" smooth="yes"/>
      <point x="402" y="398"/>
      <point x="463" y="340"/>
      <point x="463" y="264" type="curve" smooth="yes"/>
      <point x="463" y="188"/>
      <point x="403" y="130"/>
    </contour>
  </outline>
</glyph>
<glyph name="r" format="2">
  <advance width="432"/>
  <unicode hex="0072"/>
  <anchor x="251" y="529" name="top"/>
  <anchor x="126" y="0" name="bottom"/>
  <outline>
    <contour>
      <point x="50" y="0" type="line"/>
      <point x="212" y="0" type="line"/>
      <point x="212" y="336" type="line"/>
      <point x="239" y="378"/>
      <point x="284" y="403"/>
      <point x="335" y="403" type="curve" smooth="yes"/>
      <point x="363" y="403"/>
      <point x="391" y="397"/>
      <point x="412" y="387" type="curve"/>
      <point x="412" y="528" type="line"/>
      <point x="398" y="537"/>
      <point x="382" y="540"/>
      <point x="351" y="541" type="curve" smooth="yes"/>
      <point x="294" y="541"/>
      <point x="247" y="518"/>
      <point x="212" y="476" type="curve"/>
      <point x="212" y="529" type="line"/>
      <point x="50" y="529" type="line"/>
    </contour>
  </outline>
</glyph>
<glyph name="t" format="2">
  <advance width="448"/>
  <unicode hex="0074"/>
  <anchor x="269" y="0" name="bottom"/>
  <outline>
    <contour>
      <point x="317" y="-7" type="curve" smooth="yes"/>
      <point x="348" y="-7"/>
      <point x="400" y="0"/>
      <point x="430" y="9" type="curve"/>
      <point x="430" y="140" type="line"/>
      <point x="403" y="132"/>
      <point x="383" y="129"/>
      <point x="357" y="129" type="curve" smooth="yes"/>
      <point x="305" y="129"/>
      <point x="287" y="146"/>
      <point x="287" y="193" type="curve" smooth="yes"/>
      <point x="287" y="394" type="line"/>
      <point x="435" y="394" type="line"/>
      <point x="435" y="529" type="line"/>
      <point x="287" y="529" type="line"/>
      <point x="287" y="700" type="line"/>
      <point x="125" y="665" type="line"/>
      <point x="125" y="529" type="line"/>
      <point x="18" y="529" type="line"/>
      <point x="18" y="394" type="line"/>
      <point x="125" y="394" type="line"/>
      <point x="125" y="161" type="line" smooth="yes"/>
      <point x="125" y="50"/>
      <point x="190" y="-7"/>
    </contour>
  </outline>
</glyph>
<glyph name="u" format="2">
  <advance width="611"/>
  <unicode hex="0075"/>
  <anchor x="306" y="529" name="top"/>
  <anchor x="563" y="0" name="bottom"/>
  <outline>
    <contour>
      <point x="257" y="-10" type="curve" smooth="yes"/>
      <point x="311" y="-10"/>
      <point x="360" y="6"/>
      <point x="399" y="36" type="curve"/>
      <point x="399" y="0" type="line"/>
      <point x="561" y="0" type="line"/>
      <point x="561" y="529" type="line"/>
      <point x="399" y="529" type="line"/>
      <point x="399" y="171" type="line"/>
      <point x="377" y="144"/>
      <point x="345" y="129"/>
      <point x="304" y="129" type="curve" smooth="yes"/>
      <point x="246" y="129"/>
      <point x="208" y="167"/>
      <point x="208" y="225" type="curve" smooth="yes"/>
      <point x="208" y="529" type="line"/>
      <point x="46" y="529" type="line"/>
      <point x="46" y="203" type="line" smooth="yes"/>
      <point x="46" y="78"/>
      <point x="133" y="-10"/>
    </contour>
  </outline>
</glyph>
<glyph name="v" format="2">
  <advance width="606"/>
  <unicode hex="0076"/>
  <outline>
    <contour>
      <point x="224" y="0" type="line"/>
      <point x="382" y="0" type="line"/>
      <point x="608" y="529" type="line"/>
      <point x="436" y="529" type="line"/>
      <point x="305" y="205" type="line"/>
      <point x="174" y="529" type="line"/>
      <point x="-2" y="529" type="line"/>
    </contour>
  </outline>
</glyph>
<glyph name="w" format="2">
  <advance width="799"/>
  <unicode hex="0077"/>
  <anchor x="400" y="529" name="top"/>
  <outline>
    <contour>
      <point x="152" y="0" type="line"/>
      <point x="308" y="0" type="line"/>
      <point x="399" y="306" type="line"/>
      <point x="491" y="0" type="line"/>
      <point x="646" y="0" type="line"/>
      <point x="791" y="529" type="line"/>
      <point x="640" y="529" type="line"/>
      <point x="563" y="217" type="line"/>
      <point x="468" y="529" type="line"/>
      <point x="334" y="529" type="line"/>
      <point x="239" y="218" type="line"/>
      <point x="161" y="529" type="line"/>
      <point x="8" y="529" type="line"/>
    </contour>
  </outline>
</glyph>
<glyph name="x" format="2">
  <advance width="580"/>
  <unicode hex="0078"/>
  <outline>
    <contour>
      <point x="-5" y="0" type="line"/>
      <point x="176" y="0" type="line"/>
      <point x="286" y="151" type="line"/>
      <point x="397" y="0" type="line"/>
      <point x="585" y="0" type="line"/>
      <point x="379" y="270" type="line"/>
      <point x="574" y="529" type="line"/>
      <point x="393" y="529" type="line"/>
      <point x="290" y="387" type="line"/>
      <point x="186" y="529" type="line"/>
      <point x="-2" y="529" type="line"/>
      <point x="196" y="268" type="line"/>
    </contour>
  </outline>
</glyph>
<glyph name="y" format="2">
  <advance width="603"/>
  <unicode hex="0079"/>
  <anchor x="301" y="529" name="top"/>
  <outline>
    <contour>
      <point x="113" y="-216" type="curve" smooth="yes"/>
      <point x="240" y="-216"/>
      <point x="309" y="-165"/>
      <point x="368" y="-27" type="curve" smooth="yes"/>
      <point x="605" y="529" type="line"/>
      <point x="430" y="529" type="line"/>
      <point x="294" y="196" type="line"/>
      <point x="177" y="529" type="line"/>
      <point x="-2" y="529" type="line"/>
      <point x="201" y="-7" type="line"/>
      <point x="201" y="-8" type="line" smooth="yes"/>
      <point x="183" y="-53"/>
      <point x="147" y="-76"/>
      <point x="96" y="-76" type="curve" smooth="yes"/>
      <point x="75" y="-76"/>
      <point x="61" y="-75"/>
      <point x="46" y="-72" type="curve"/>
      <point x="46" y="-210" type="line"/>
      <point x="62" y="-214"/>
      <point x="87" y="-216"/>
    </contour>
  </outline>
</glyph>
<glyph name="z" format="2">
  <advance width="514"/>
  <unicode hex="007A"/>
  <anchor x="252" y="529" name="top"/>
  <outline>
    <contour>
      <point x="25" y="0" type="line"/>
      <point x="489" y="0" type="line"/>
      <point x="489" y="135" type="line"/>
      <point x="234" y="135" type="line"/>
      <point x="481" y="416" type="line"/>
      <point x="481" y="529" type="line"/>
      <point x="27" y="529" type="line"/>
      <point x="27" y="394" type="line"/>
      <point x="271" y="394" type="line"/>
      <point x="25" y="113" type="line"/>
    </contour>
  </outline>
</glyph>
<glyph name="braceleft" format="2">
  <advance width="448"/>
  <unicode hex="007B"/>
  <outline>
    <contour>
      <point x="301" y="-220" type="curve" smooth="yes"/>
      <point x="338" y="-220"/>
      <point x="372" y="-214"/>
      <point x="408" y="-202" type="curve"/>
      <point x="386" y="-87" type="line"/>
      <point x="366" y="-94"/>
      <point x="345" y="-98"/>
      <point x="323" y="-98" type="curve" smooth="yes"/>
      <point x="275" y="-97"/>
      <point x="254" y="-59"/>
      <point x="272" y="-8" type="curve" smooth="yes"/>
      <point x="304" y="84" type="line" smooth="yes"/>
      <point x="331" y="161"/>
      <point x="286" y="228"/>
      <point x="199" y="245" type="curve"/>
      <point x="286" y="262"/>
      <point x="331" y="329"/>
      <point x="304" y="406" type="curve" smooth="yes"/>
      <point x="272" y="498" type="line" smooth="yes"/>
      <point x="254" y="549"/>
      <point x="275" y="587"/>
      <point x="323" y="588" type="curve" smooth="yes"/>
      <point x="345" y="588"/>
      <point x="366" y="584"/>
      <point x="386" y="577" type="curve"/>
      <point x="408" y="692" type="line"/>
      <point x="372" y="704"/>
      <point x="338" y="710"/>
      <point x="301" y="710" type="curve" smooth="yes"/>
      <point x="161" y="710"/>
      <point x="87" y="620"/>
      <point x="130" y="498" type="curve" smooth="yes"/>
      <point x="161" y="410" type="line" smooth="yes"/>
      <point x="182" y="349"/>
      <point x="156" y="304"/>
      <point x="96" y="304" type="curve" smooth="yes"/>
      <point x="11" y="304" type="line"/>
      <point x="11" y="186" type="line"/>
      <point x="96" y="186" type="line" smooth="yes"/>
      <point x="156" y="186"/>
      <point x="182" y="141"/>
      <point x="161" y="80" type="curve" smooth="yes"/>
      <point x="130" y="-8" type="line" smooth="yes"/>
      <point x="87" y="-130"/>
      <point x="161" y="-220"/>
    </contour>
  </outline>
</glyph>
<glyph name="uni00A4" format="2">
  <advance width="688"/>
  <unicode hex="00A4"/>
  <outline>
    <contour>
      <point x="97" y="37" type="line"/>
      <point x="195" y="135" type="line"/>
      <point x="238" y="109"/>
      <point x="289" y="94"/>
      <point x="344" y="94" type="curve" smooth="yes"/>
      <point x="400" y="94"/>
      <point x="451" y="109"/>
      <point x="494" y="136" type="curve"/>
      <point x="594" y="37" type="line"/>
      <point x="669" y="112" type="line"/>
      <point x="572" y="209" type="line"/>
      <point x="603" y="252"/>
      <point x="621" y="306"/>
      <point x="621" y="364" type="curve" smooth="yes"/>
      <point x="621" y="422"/>
      <point x="603" y="476"/>
      <point x="572" y="519" type="curve"/>
      <point x="668" y="616" type="line"/>
      <point x="593" y="691" type="line"/>
      <point x="494" y="592" type="line"/>
      <point x="451" y="619"/>
      <point x="400" y="634"/>
      <point x="344" y="634" type="curve" smooth="yes"/>
      <point x="289" y="634"/>
      <point x="238" y="619"/>
      <point x="195" y="593" type="curve"/>
      <point x="96" y="693" type="line"/>
      <point x="19" y="616" type="line"/>
      <point x="115" y="518" type="line"/>
      <point x="85" y="475"/>
      <point x="67" y="422"/>
      <point x="67" y="364" type="curve" smooth="yes"/>
      <point x="67" y="306"/>
      <point x="85" y="253"/>
      <point x="115" y="210" type="curve"/>
      <point x="20" y="114" type="line"/>
    </contour>
    <contour>
      <point x="344" y="229" type="curve" smooth="yes"/>
      <point x="272" y="229"/>
      <point x="215" y="288"/>
      <point x="215" y="364" type="curve" smooth="yes"/>
      <point x="215" y="440"/>
      <point x="272" y="499"/>
      <point x="344" y="499" type="curve" smooth="yes"/>
      <point x="416" y="499"/>
      <point x="473" y="440"/>
      <point x="473" y="364" type="curve" smooth="yes"/>
      <point x="473" y="288"/>
      <point x="416" y="229"/>
    </contour>
  </outline>
</glyph>
<glyph name="yen" format="2">
  <advance width="738"/>
  <unicode hex="00A5"/>
  <outline>
    <contour>
      <point x="288" y="0" type="line"/>
      <point x="460" y="0" type="line"/>
      <point x="460" y="130" type="line"/>
      <point x="627" y="130" type="line"/>
      <point x="627" y="211" type="line"/>
      <point x="460" y="211" type="line"/>
      <point x="460" y="264" type="line"/>
      <point x="627" y="264" type="line"/>
      <point x="627" y="345" type="line"/>
      <point x="509" y="345" type="line"/>
      <point x="739" y="700" type="line"/>
      <point x="552" y="700" type="line"/>
      <point x="379" y="413" type="line"/>
      <point x="197" y="700" type="line"/>
      <point x="-1" y="700" type="line"/>
      <point x="238" y="345" type="line"/>
      <point x="111" y="345" type="line"/>
      <point x="111" y="264" type="line"/>
      <point x="288" y="264" type="line"/>
      <point x="288" y="211" type="line"/>
      <point x="111" y="211" type="line"/>
      <point x="111" y="130" type="line"/>
      <point x="288" y="130" type="line"/>
    </contour>
  </outline>
</glyph>
<glyph name="uni00A6" format="2">
  <advance width="362"/>
  <unicode hex="00A6"/>
  <outline>
    <contour>
      <point x="106" y="288" type="line"/>
      <point x="256" y="288" type="line"/>
      <point x="256" y="700" type="line"/>
      <point x="106" y="700" type="line"/>
    </contour>
    <contour>
      <point x="106" y="-209" type="line"/>
      <point x="256" y="-209" type="line"/>
      <point x="256" y="203" type="line"/>
      <point x="106" y="203" type="line"/>
    </contour>
  </outline>
</glyph>
<glyph name="section" format="2">
  <advance width="584"/>
  <unicode hex="00A7"/>
  <outline>
    <contour>
      <point x="279" y="-55" type="curve" smooth="yes"/>
      <point x="406" y="-55"/>
      <point x="489" y="9"/>
      <point x="489" y="106" type="curve" smooth="yes"/>
      <point x="489" y="139"/>
      <point x="481" y="165"/>
      <point x="462" y="187" type="curve"/>
      <point x="521" y="214"/>
      <point x="554" y="261"/>
      <point x="554" y="323" type="curve" smooth="yes"/>
      <point x="554" y="400"/>
      <point x="514" y="439"/>
      <point x="397" y="478" type="curve" smooth="yes"/>
      <point x="294" y="513" type="line" smooth="yes"/>
      <point x="256" y="526"/>
      <point x="241" y="539"/>
      <point x="241" y="561" type="curve" smooth="yes"/>
      <point x="241" y="590"/>
      <point x="265" y="607"/>
      <point x="304" y="607" type="curve" smooth="yes"/>
      <point x="348" y="607"/>
      <point x="397" y="591"/>
      <point x="454" y="557" type="curve"/>
      <point x="516" y="651" type="line"/>
      <point x="451" y="690"/>
      <point x="379" y="710"/>
      <point x="307" y="710" type="curve" smooth="yes"/>
      <point x="179" y="710"/>
      <point x="95" y="645"/>
      <point x="95" y="547" type="curve" smooth="yes"/>
      <point x="95" y="514"/>
      <point x="104" y="487"/>
      <point x="123" y="465" type="curve"/>
      <point x="65" y="440"/>
      <point x="30" y="392"/>
      <point x="30" y="331" type="curve" smooth="yes"/>
      <point x="30" y="254"/>
      <point x="70" y="214"/>
      <point x="187" y="176" type="curve" smooth="yes"/>
      <point x="291" y="141" type="line" smooth="yes"/>
      <point x="330" y="127"/>
      <point x="344" y="114"/>
      <point x="344" y="93" type="curve" smooth="yes"/>
      <point x="344" y="65"/>
      <point x="320" y="47"/>
      <point x="281" y="47" type="curve" smooth="yes"/>
      <point x="237" y="46"/>
      <point x="189" y="62"/>
      <point x="131" y="97" type="curve"/>
      <point x="69" y="3" type="line"/>
      <point x="130" y="-35"/>
      <point x="202" y="-55"/>
    </contour>
    <contour>
      <point x="364" y="247" type="curve"/>
      <point x="357" y="249"/>
      <point x="350" y="252"/>
      <point x="343" y="254" type="curve" smooth="yes"/>
      <point x="223" y="292" type="line" smooth="yes"/>
      <point x="180" y="307"/>
      <point x="163" y="323"/>
      <point x="163" y="350" type="curve" smooth="yes"/>
      <point x="163" y="380"/>
      <point x="185" y="401"/>
      <point x="221" y="407" type="curve"/>
      <point x="227" y="405"/>
      <point x="234" y="402"/>
      <point x="241" y="400" type="curve" smooth="yes"/>
      <point x="361" y="362" type="line" smooth="yes"/>
      <point x="403" y="348"/>
      <point x="421" y="330"/>
      <point x="421" y="303" type="curve" smooth="yes"/>
      <point x="421" y="274"/>
      <point x="399" y="253"/>
    </contour>
  </outline>
</glyph>
<glyph name="dieresis" format="2">
  <advance width="600"/>
  <unicode hex="00A8"/>
  <outline>
    <contour>
      <point x="178" y="602" type="curve" smooth="yes"/>
      <point x="224" y="602"/>
      <point x="259" y="636"/>
      <point x="259" y="684" type="curve" smooth="yes"/>
      <point x="259" y="732"/>
      <point x="224" y="766"/>
      <point x="178" y="766" type="curve" smooth="yes"/>
      <point x="132" y="766"/>
      <point x="97" y="732"/>
      <point x="97" y="684" type="curve" smooth="yes"/>
      <point x="97" y="636"/>
      <point x="132" y="602"/>
    </contour>
    <contour>
      <point x="422" y="602" type="curve" smooth="yes"/>
      <point x="468" y="602"/>
      <point x="503" y="636"/>
      <point x="503" y="684" type="curve" smooth="yes"/>
      <point x="503" y="732"/>
      <point x="468" y="766"/>
      <point x="422" y="766" type="curve" smooth="yes"/>
      <point x="376" y="766"/>
      <point x="341" y="732"/>
      <point x="341" y="684" type="curve" smooth="yes"/>
      <point x="341" y="636"/>
      <point x="376" y="602"/>
    </contour>
  </outline>
</glyph>
<glyph name="copyright" format="2">
  <advance width="783"/>
  <unicode hex="00A9"/>
  <outline>
    <contour>
      <point x="397" y="159" type="curve" smooth="yes"/>
      <point x="457" y="159"/>
      <point x="514" y="185"/>
      <point x="554" y="230" type="curve"/>
      <point x="476" y="310" type="line"/>
      <point x="454" y="284"/>
      <point x="432" y="271"/>
      <point x="403" y="271" type="curve" smooth="yes"/>
      <point x="360" y="271"/>
      <point x="327" y="305"/>
      <point x="327" y="351" type="curve" smooth="yes"/>
      <point x="327" y="399"/>
      <point x="359" y="433"/>
      <point x="401" y="433" type="curve" smooth="yes"/>
      <point x="432" y="433"/>
      <point x="452" y="422"/>
      <point x="478" y="392" type="curve"/>
      <point x="557.0" y="473" type="line"/>
      <point x="519" y="518"/>
      <point x="459" y="544"/>
      <point x="397" y="544" type="curve" smooth="yes"/>
      <point x="285" y="544"/>
      <point x="198" y="461"/>
      <point x="198" y="351" type="curve" smooth="yes"/>
      <point x="198" y="243"/>
      <point x="285" y="159"/>
    </contour>
    <contour>
      <point x="391" y="-11.0" type="curve" smooth="yes"/>
      <point x="592" y="-11.0"/>
      <point x="749" y="148"/>
      <point x="749" y="350.0" type="curve" smooth="yes"/>
      <point x="749" y="552"/>
      <point x="592" y="711.0"/>
      <point x="391" y="711.0" type="curve" smooth="yes"/>
      <point x="191" y="711.0"/>
      <point x="33" y="552"/>
      <point x="33" y="350.0" type="curve" smooth="yes"/>
      <point x="33" y="148"/>
      <point x="191" y="-11.0"/>
    </contour>
    <contour>
      <point x="391" y="64" type="curve" smooth="yes"/>
      <point x="237" y="64"/>
      <point x="113" y="192"/>
      <point x="113" y="350.0" type="curve" smooth="yes"/>
      <point x="113" y="508"/>
      <point x="237" y="636"/>
      <point x="391" y="636" type="curve" smooth="yes"/>
      <point x="546" y="636"/>
      <point x="670" y="508"/>
      <point x="670" y="350.0" type="curve" smooth="yes"/>
      <point x="670" y="192"/>
      <point x="546" y="64"/>
    </contour>
  </outline>
</glyph>
<glyph name="ordfeminine" format="2">
  <advance width="450"/>
  <unicode hex="00AA"/>
  <outline>
    <contour>
      <point x="172" y="298" type="curve" smooth="yes"/>
      <point x="214" y="298"/>
      <point x="248" y="307"/>
      <point x="280" y="328" type="curve"/>
      <point x="280" y="305" type="line"/>
      <point x="405" y="305" type="line"/>
      <point x="405" y="559" type="line" smooth="yes"/>
      <point x="405" y="655"/>
      <point x="341" y="711"/>
      <point x="229" y="711" type="curve" smooth="yes"/>
      <point x="168" y="711"/>
      <point x="107" y="696"/>
      <point x="41" y="667" type="curve"/>
      <point x="86" y="574" type="line"/>
      <point x="139" y="595"/>
      <point x="176" y="605"/>
      <point x="206" y="605" type="curve" smooth="yes"/>
      <point x="256" y="605"/>
      <point x="280" y="586"/>
      <point x="280" y="548" type="curve" smooth="yes"/>
      <point x="280" y="531" type="line"/>
      <point x="251" y="537"/>
      <point x="222" y="541"/>
      <point x="192" y="541" type="curve" smooth="yes"/>
      <point x="87" y="541"/>
      <point x="27" y="497"/>
      <point x="27" y="422" type="curve" smooth="yes"/>
      <point x="27" y="349"/>
      <point x="86" y="298"/>
    </contour>
    <contour>
      <point x="207" y="387" type="curve"/>
      <point x="170" y="387"/>
      <point x="148" y="401"/>
      <point x="148" y="424" type="curve" smooth="yes"/>
      <point x="148" y="447"/>
      <point x="170" y="460"/>
      <point x="211" y="460" type="curve" smooth="yes"/>
      <point x="234" y="460"/>
      <point x="257" y="458"/>
      <point x="280" y="452" type="curve"/>
      <point x="280" y="404" type="line"/>
      <point x="260" y="393"/>
      <point x="235" y="387"/>
    </contour>
  </outline>
</glyph>
<glyph name="plusminus" format="2">
  <advance width="600"/>
  <unicode hex="00B1"/>
  <outline>
    <contour>
      <point x="75" y="-1" type="line"/>
      <point x="525" y="-1" type="line"/>
      <point x="525" y="118" type="line"/>
      <point x="75" y="118" type="line"/>
    </contour>
    <contour>
      <point x="239" y="209" type="line"/>
      <point x="361" y="209" type="line"/>
      <point x="361" y="360" type="line"/>
      <point x="525" y="360" type="line"/>
      <point x="525" y="479" type="line"/>
      <point x="361" y="479" type="line"/>
      <point x="361" y="629" type="line"/>
      <point x="239" y="629" type="line"/>
      <point x="239" y="479" type="line"/>
      <point x="75" y="479" type="line"/>
      <point x="75" y="360" type="line"/>
      <point x="239" y="360" type="line"/>
    </contour>
  </outline>
</glyph>
<glyph name="uni00B5" format="2">
  <advance width="640"/>
  <unicode hex="00B5"/>
  <outline>
    <contour>
      <point x="63" y="-204" type="line"/>
      <point x="225" y="-204" type="line"/>
      <point x="225" y="-4" type="line"/>
      <point x="237" y="-7"/>
      <point x="250" y="-8"/>
      <point x="263" y="-8" type="curve" smooth="yes"/>
      <point x="328" y="-8"/>
      <point x="378" y="29"/>
      <point x="415" y="96" type="curve"/>
      <point x="415" y="0" type="line"/>
      <point x="577" y="0" type="line"/>
      <point x="577" y="529" type="line"/>
      <point x="415" y="529" type="line"/>
      <point x="415" y="175" type="line"/>
      <point x="391" y="137"/>
      <point x="360" y="119"/>
      <point x="320" y="119" type="curve" smooth="yes"/>
      <point x="263" y="119"/>
      <point x="225" y="157"/>
      <point x="225" y="215" type="curve"/>
      <point x="225" y="529" type="line"/>
      <point x="63" y="529" type="line"/>
    </contour>
  </outline>
</glyph>
<glyph name="periodcentered" format="2">
  <advance width="250"/>
  <unicode hex="00B7"/>
  <outline>
    <contour>
      <point x="125" y="194" type="curve" smooth="yes"/>
      <point x="176" y="194"/>
      <point x="218" y="236"/>
      <point x="218" y="287" type="curve" smooth="yes"/>
      <point x="218" y="338"/>
      <point x="176" y="380"/>
      <point x="125" y="380" type="curve" smooth="yes"/>
      <point x="74" y="380"/>
      <point x="32" y="338"/>
      <point x="32" y="287" type="curve" smooth="yes"/>
      <point x="32" y="236"/>
      <point x="74" y="194"/>
    </contour>
  </outline>
</glyph>
<glyph name="cedilla" format="2">
  <advance width="600"/>
  <unicode hex="00B8"/>
  <outline>
    <contour>
      <point x="315" y="-239" type="curve" smooth="yes"/>
      <point x="394" y="-239"/>
      <point x="454" y="-193"/>
      <point x="454" y="-134" type="curve" smooth="yes"/>
      <point x="454" y="-83"/>
      <point x="418" y="-48"/>
      <point x="359" y="-42" type="curve"/>
      <point x="372" y="0" type="line"/>
      <point x="296" y="0" type="line"/>
      <point x="267" y="-99" type="line"/>
      <point x="314" y="-99" type="line" smooth="yes"/>
      <point x="344" y="-99"/>
      <point x="363" y="-112"/>
      <point x="363" y="-132" type="curve" smooth="yes"/>
      <point x="363" y="-154"/>
      <point x="345" y="-166"/>
      <point x="312" y="-166" type="curve" smooth="yes"/>
      <point x="286" y="-166"/>
      <point x="260" y="-156"/>
      <point x="236" y="-138" type="curve"/>
      <point x="185" y="-192" type="line"/>
      <point x="221" y="-224"/>
      <point x="263" y="-239"/>
    </contour>
  </outline>
</glyph>
<glyph name="onesuperior" format="2">
  <advance width="207"/>
  <unicode hex="00B9"/>
  <outline>
    <contour>
      <point x="92" y="350" type="line"/>
      <point x="190" y="350" type="line"/>
      <point x="190" y="700" type="line"/>
      <point x="129" y="700" type="line"/>
      <point x="15" y="655" type="line"/>
      <point x="15" y="572" type="line"/>
      <point x="92" y="602" type="line"/>
    </contour>
  </outline>
</glyph>
<glyph name="ordmasculine" format="2">
  <advance width="490"/>
  <unicode hex="00BA"/>
  <outline>
    <contour>
      <point x="245" y="295" type="curve" smooth="yes"/>
      <point x="366" y="295"/>
      <point x="462" y="386"/>
      <point x="462" y="503" type="curve" smooth="yes"/>
      <point x="462" y="620"/>
      <point x="366" y="711"/>
      <point x="245" y="711" type="curve" smooth="yes"/>
      <point x="124" y="711"/>
      <point x="28" y="620"/>
      <point x="28" y="503" type="curve" smooth="yes"/>
      <point x="28" y="386"/>
      <point x="124" y="295"/>
    </contour>
    <contour>
      <point x="245" y="405" type="curve" smooth="yes"/>
      <point x="193" y="405"/>
      <point x="152" y="448"/>
      <point x="152" y="503" type="curve" smooth="yes"/>
      <point x="152" y="558"/>
      <point x="193" y="601"/>
      <point x="245" y="601" type="curve" smooth="yes"/>
      <point x="297" y="601"/>
      <point x="338" y="558"/>
      <point x="338" y="503" type="curve" smooth="yes"/>
      <point x="338" y="448"/>
      <point x="297" y="405"/>
    </contour>
  </outline>
</glyph>
<glyph name="Oslash" format="2">
  <advance width="814"/>
  <unicode hex="00D8"/>
  <outline>
    <contour>
      <point x="407" y="-11" type="curve" smooth="yes"/>
      <point x="617" y="-11"/>
      <point x="781" y="148"/>
      <point x="781" y="350" type="curve" smooth="yes"/>
      <point x="781" y="447"/>
      <point x="743" y="534"/>
      <point x="681" y="598" type="curve"/>
      <point x="765" y="700" type="line"/>
      <point x="617" y="700" type="line"/>
      <point x="589" y="667" type="line"/>
      <point x="536" y="695"/>
      <point x="474" y="711"/>
      <point x="407" y="711" type="curve" smooth="yes"/>
      <point x="197" y="711"/>
      <point x="33" y="552"/>
      <point x="33" y="350" type="curve" smooth="yes"/>
      <point x="33" y="256"/>
      <point x="69" y="171"/>
      <point x="128" y="107" type="curve"/>
      <point x="40" y="0" type="line"/>
      <point x="187" y="0" type="line"/>
      <point x="218" y="37" type="line"/>
      <point x="273" y="6"/>
      <point x="337" y="-11"/>
    </contour>
    <contour>
      <point x="239" y="241" type="line"/>
      <point x="220" y="272"/>
      <point x="210" y="309"/>
      <point x="210" y="350" type="curve" smooth="yes"/>
      <point x="210" y="466"/>
      <point x="295" y="553"/>
      <point x="407" y="553" type="curve" smooth="yes"/>
      <point x="434" y="553"/>
      <point x="460" y="548"/>
      <point x="484" y="538" type="curve"/>
    </contour>
    <contour>
      <point x="407" y="147" type="curve" smooth="yes"/>
      <point x="377" y="147"/>
      <point x="348" y="153"/>
      <point x="323" y="165" type="curve"/>
      <point x="571" y="465" type="line"/>
      <point x="592" y="433"/>
      <point x="604" y="394"/>
      <point x="604" y="350" type="curve" smooth="yes"/>
      <point x="604" y="234"/>
      <point x="519" y="147"/>
    </contour>
  </outline>
</glyph>
<glyph name="Thorn" format="2">
  <advance width="695"/>
  <unicode hex="00DE"/>
  <outline>
    <contour>
      <point x="58" y="0" type="line"/>
      <point x="230" y="0" type="line"/>
      <point x="230" y="126" type="line"/>
      <point x="427" y="126" type="line" smooth="yes"/>
      <point x="563" y="126"/>
      <point x="665" y="221"/>
      <point x="665" y="348" type="curve" smooth="yes"/>
      <point x="665" y="479"/>
      <point x="565" y="574"/>
      <point x="427" y="575" type="curve" smooth="yes"/>
      <point x="230" y="575" type="line"/>
      <point x="230" y="700" type="line"/>
      <point x="58" y="700" type="line"/>
    </contour>
    <contour>
      <point x="230" y="268" type="line"/>
      <point x="230" y="428" type="line"/>
      <point x="407" y="428" type="line" smooth="yes"/>
      <point x="457" y="428"/>
      <point x="491" y="395"/>
      <point x="491" y="347" type="curve" smooth="yes"/>
      <point x="491" y="300"/>
      <point x="457" y="268"/>
      <point x="407" y="268" type="curve" smooth="yes"/>
    </contour>
  </outline>
</glyph>
<glyph name="germandbls" format="2">
  <advance width="708"/>
  <unicode hex="00DF"/>
  <outline>
    <contour>
      <point x="489" y="-11" type="curve" smooth="yes"/>
      <point x="619" y="-11"/>
      <point x="701" y="55"/>
      <point x="701" y="159" type="curve" smooth="yes"/>
      <point x="701" y="228"/>
      <point x="665" y="269"/>
      <point x="575" y="302" type="curve" smooth="yes"/>
      <point x="495" y="330" type="line" smooth="yes"/>
      <point x="463" y="342"/>
      <point x="455" y="350"/>
      <point x="455" y="368" type="curve" smooth="yes"/>
      <point x="455" y="416"/>
      <point x="618" y="433"/>
      <point x="618" y="562" type="curve" smooth="yes"/>
      <point x="618" y="667"/>
      <point x="509" y="735"/>
      <point x="341" y="735" type="curve" smooth="yes"/>
      <point x="159" y="735"/>
      <point x="50" y="636"/>
      <point x="50" y="470" type="curve" smooth="yes"/>
      <point x="50" y="0" type="line"/>
      <point x="211" y="0" type="line"/>
      <point x="211" y="465" type="line" smooth="yes"/>
      <point x="211" y="558"/>
      <point x="258" y="607"/>
      <point x="345" y="607" type="curve" smooth="yes"/>
      <point x="410" y="607"/>
      <point x="460" y="577"/>
      <point x="460" y="538" type="curve" smooth="yes"/>
      <point x="460" y="471"/>
      <point x="301" y="461"/>
      <point x="301" y="345" type="curve" smooth="yes"/>
      <point x="301" y="291"/>
      <point x="335" y="255"/>
      <point x="410" y="230" type="curve" smooth="yes"/>
      <point x="497" y="201" type="line" smooth="yes"/>
      <point x="540" y="187"/>
      <point x="554" y="174"/>
      <point x="554" y="148" type="curve" smooth="yes"/>
      <point x="554" y="117"/>
      <point x="527" y="98"/>
      <point x="482" y="98" type="curve" smooth="yes"/>
      <point x="436" y="98"/>
      <point x="391" y="117"/>
      <point x="347" y="156" type="curve"/>
      <point x="269" y="70" type="line"/>
      <point x="330" y="15"/>
      <point x="401" y="-11"/>
    </contour>
  </outline>
</glyph>
<glyph name="ae" format="2">
  <advance width="934"/>
  <unicode hex="00E6"/>
  <outline>
    <contour>
      <point x="219" y="-9" type="curve" smooth="yes"/>
      <point x="310" y="-9"/>
      <point x="377" y="16"/>
      <point x="443" y="75" type="curve"/>
      <point x="495" y="22"/>
      <point x="569" y="-10"/>
      <point x="653" y="-10" type="curve" smooth="yes"/>
      <point x="741" y="-10"/>
      <point x="807" y="14"/>
      <point x="874" y="70" type="curve"/>
      <point x="767" y="165" type="line"/>
      <point x="742" y="139"/>
      <point x="705" y="125"/>
      <point x="661" y="125" type="curve" smooth="yes"/>
      <point x="600" y="125"/>
      <point x="552" y="159"/>
      <point x="531" y="209" type="curve"/>
      <point x="908" y="209" type="line"/>
      <point x="908" y="249" type="line"/>
      <point x="908" y="416"/>
      <point x="796" y="538"/>
      <point x="641" y="538" type="curve" smooth="yes"/>
      <point x="576" y="538"/>
      <point x="518" y="516"/>
      <point x="472" y="476" type="curve"/>
      <point x="433" y="517"/>
      <point x="372" y="539"/>
      <point x="293" y="539" type="curve" smooth="yes"/>
      <point x="212" y="539"/>
      <point x="132" y="520"/>
      <point x="46" y="481" type="curve"/>
      <point x="104" y="362" type="line"/>
      <point x="173" y="391"/>
      <point x="222" y="404"/>
      <point x="264" y="404" type="curve" smooth="yes"/>
      <point x="331" y="404"/>
      <point x="365" y="378"/>
      <point x="365" y="325" type="curve" smooth="yes"/>
      <point x="365" y="299" type="line"/>
      <point x="326" y="309"/>
      <point x="286" y="314"/>
      <point x="245" y="314" type="curve" smooth="yes"/>
      <point x="110" y="314"/>
      <point x="32" y="256"/>
      <point x="32" y="155" type="curve" smooth="yes"/>
      <point x="32" y="58"/>
      <point x="109" y="-9"/>
    </contour>
    <contour>
      <point x="528" y="322" type="line"/>
      <point x="544" y="375"/>
      <point x="584" y="406"/>
      <point x="638" y="406" type="curve" smooth="yes"/>
      <point x="690" y="406"/>
      <point x="732" y="373"/>
      <point x="749" y="322" type="curve"/>
    </contour>
    <contour>
      <point x="264" y="105" type="curve" smooth="yes"/>
      <point x="215" y="105"/>
      <point x="186" y="125"/>
      <point x="186" y="158" type="curve" smooth="yes"/>
      <point x="186" y="191"/>
      <point x="216" y="210"/>
      <point x="269" y="210" type="curve" smooth="yes"/>
      <point x="305" y="210"/>
      <point x="340" y="205"/>
      <point x="374" y="195" type="curve"/>
      <point x="378" y="181"/>
      <point x="383" y="166"/>
      <point x="389" y="153" type="curve"/>
      <point x="352" y="121"/>
      <point x="309" y="105"/>
    </contour>
  </outline>
</glyph>
<glyph name="ccedilla" format="2">
  <advance width="539"/>
  <unicode hex="00E7"/>
  <outline>
    <contour>
      <point x="287" y="-239" type="curve" smooth="yes"/>
      <point x="366" y="-239"/>
      <point x="426" y="-193"/>
      <point x="426" y="-134" type="curve" smooth="yes"/>
      <point x="426" y="-83"/>
      <point x="390" y="-48"/>
      <point x="331" y="-42" type="curve"/>
      <point x="342" y="-8" type="line"/>
      <point x="413" y="1"/>
      <point x="479" y="35"/>
      <point x="525" y="87" type="curve"/>
      <point x="429" y="187" type="line"/>
      <point x="394" y="148"/>
      <point x="358" y="130"/>
      <point x="314" y="130" type="curve" smooth="yes"/>
      <point x="241" y="130"/>
      <point x="187" y="187"/>
      <point x="187" y="264" type="curve" smooth="yes"/>
      <point x="187" y="341"/>
      <point x="240" y="399"/>
      <point x="310" y="399" type="curve" smooth="yes"/>
      <point x="357" y="399"/>
      <point x="394" y="380"/>
      <point x="431" y="338" type="curve"/>
      <point x="530" y="441" type="line"/>
      <point x="475" y="503"/>
      <point x="393" y="539"/>
      <point x="306" y="539" type="curve" smooth="yes"/>
      <point x="148" y="539"/>
      <point x="26" y="419"/>
      <point x="26" y="264" type="curve" smooth="yes"/>
      <point x="26" y="122"/>
      <point x="128" y="11"/>
      <point x="266" y="-7" type="curve"/>
      <point x="239" y="-99" type="line"/>
      <point x="286" y="-99" type="line" smooth="yes"/>
      <point x="316" y="-99"/>
      <point x="335" y="-112"/>
      <point x="335" y="-132" type="curve" smooth="yes"/>
      <point x="335" y="-154"/>
      <point x="317" y="-166"/>
      <point x="284" y="-166" type="curve" smooth="yes"/>
      <point x="258" y="-166"/>
      <point x="232" y="-156"/>
      <point x="208" y="-138" type="curve"/>
      <point x="157" y="-192" type="line"/>
      <point x="193" y="-224"/>
      <point x="235" y="-239"/>
    </contour>
  </outline>
</glyph>
<glyph name="eth" format="2">
  <advance width="596"/>
  <unicode hex="00F0"/>
  <outline>
    <contour>
      <point x="287" y="-9" type="curve" smooth="yes"/>
      <point x="461" y="-9"/>
      <point x="568" y="117"/>
      <point x="568" y="320" type="curve" smooth="yes"/>
      <point x="568" y="439"/>
      <point x="522" y="548"/>
      <point x="439" y="637" type="curve"/>
      <point x="514" y="685" type="line"/>
      <point x="454" y="766" type="line"/>
      <point x="361" y="706" type="line"/>
      <point x="328" y="730"/>
      <point x="291" y="752"/>
      <point x="251" y="771" type="curve"/>
      <point x="165" y="665" type="line"/>
      <point x="190" y="654"/>
      <point x="214" y="641"/>
      <point x="237" y="626" type="curve"/>
      <point x="177" y="587" type="line"/>
      <point x="237" y="506" type="line"/>
      <point x="319" y="559" type="line"/>
      <point x="353" y="523"/>
      <point x="379" y="485"/>
      <point x="390" y="449" type="curve"/>
      <point x="356" y="471"/>
      <point x="316" y="481"/>
      <point x="266" y="481" type="curve" smooth="yes"/>
      <point x="138" y="481"/>
      <point x="26" y="371"/>
      <point x="26" y="246" type="curve" smooth="yes"/>
      <point x="26" y="102"/>
      <point x="140" y="-9"/>
    </contour>
    <contour>
      <point x="292" y="132" type="curve" smooth="yes"/>
      <point x="231" y="132"/>
      <point x="182" y="181"/>
      <point x="182" y="241" type="curve" smooth="yes"/>
      <point x="182" y="300"/>
      <point x="231" y="348"/>
      <point x="292" y="348" type="curve" smooth="yes"/>
      <point x="351" y="348"/>
      <point x="400" y="300"/>
      <point x="400" y="241" type="curve" smooth="yes"/>
      <point x="400" y="181"/>
      <point x="352" y="132"/>
    </contour>
  </outline>
</glyph>
<glyph name="oslash" format="2">
  <advance width="626"/>
  <unicode hex="00F8"/>
  <outline>
    <contour>
      <point x="313" y="-10" type="curve" smooth="yes"/>
      <point x="474" y="-10"/>
      <point x="600" y="110"/>
      <point x="600" y="264" type="curve" smooth="yes"/>
      <point x="600" y="339"/>
      <point x="570" y="405"/>
      <point x="522" y="455" type="curve"/>
      <point x="583" y="529" type="line"/>
      <point x="478" y="529" type="line"/>
      <point x="457" y="503" type="line"/>
      <point x="415" y="526"/>
      <point x="366" y="539"/>
      <point x="313" y="539" type="curve" smooth="yes"/>
      <point x="152" y="539"/>
      <point x="26" y="418"/>
      <point x="26" y="264" type="curve" smooth="yes"/>
      <point x="26" y="190"/>
      <point x="55" y="123"/>
      <point x="104" y="74" type="curve"/>
      <point x="43" y="0" type="line"/>
      <point x="147" y="0" type="line"/>
      <point x="168" y="26" type="line"/>
      <point x="211" y="3"/>
      <point x="260" y="-10"/>
    </contour>
    <contour>
      <point x="202" y="194" type="line"/>
      <point x="191" y="214"/>
      <point x="184" y="238"/>
      <point x="184" y="264" type="curve" smooth="yes"/>
      <point x="184" y="340"/>
      <point x="241" y="399"/>
      <point x="313" y="399" type="curve" smooth="yes"/>
      <point x="331" y="399"/>
      <point x="348" y="395"/>
      <point x="363" y="389" type="curve"/>
    </contour>
    <contour>
      <point x="313" y="130" type="curve" smooth="yes"/>
      <point x="295" y="130"/>
      <point x="278" y="134"/>
      <point x="263" y="140" type="curve"/>
      <point x="423" y="335" type="line"/>
      <point x="435" y="315"/>
      <point x="442" y="290"/>
      <point x="442" y="264" type="curve" smooth="yes"/>
      <point x="442" y="189"/>
      <point x="386" y="130"/>
    </contour>
  </outline>
</glyph>
<glyph name="thorn" format="2">
  <advance width="651"/>
  <unicode hex="00FE"/>
  <outline>
    <contour>
      <point x="50" y="-211" type="line"/>
      <point x="212" y="-211" type="line"/>
      <point x="212" y="28" type="line"/>
      <point x="252" y="5"/>
      <point x="298" y="-7"/>
      <point x="347" y="-7" type="curve" smooth="yes"/>
      <point x="501" y="-7"/>
      <point x="622" y="112"/>
      <point x="622" y="264" type="curve" smooth="yes"/>
      <point x="622" y="416"/>
      <point x="503" y="536"/>
      <point x="352" y="536" type="curve" smooth="yes"/>
      <point x="301" y="536"/>
      <point x="253" y="521"/>
      <point x="212" y="492" type="curve"/>
      <point x="212" y="735" type="line"/>
      <point x="50" y="700" type="line"/>
    </contour>
    <contour>
      <point x="324" y="398" type="curve" smooth="yes"/>
      <point x="402" y="398"/>
      <point x="463" y="340"/>
      <point x="463" y="264" type="curve" smooth="yes"/>
      <point x="463" y="188"/>
      <point x="403" y="130"/>
      <point x="324" y="130" type="curve" smooth="yes"/>
      <point x="280" y="130"/>
      <point x="240" y="145"/>
      <point x="212" y="171" type="curve"/>
      <point x="212" y="356" type="line"/>
      <point x="241" y="384"/>
      <point x="279" y="398"/>
    </contour>
  </outline>
</glyph>
<glyph name="Aogonek" format="2">
  <advance width="753"/>
  <unicode hex="0104"/>
  <outline>
    <contour>
      <point x="693" y="-221" type="curve" smooth="yes"/>
      <point x="725" y="-221"/>
      <point x="757" y="-212"/>
      <point x="780" y="-198" type="curve"/>
      <point x="759" y="-128" type="line"/>
      <point x="749" y="-135"/>
      <point x="735" y="-139"/>
      <point x="723" y="-139" type="curve" smooth="yes"/>
      <point x="694" y="-139"/>
      <point x="676" y="-124"/>
      <point x="676" y="-98" type="curve" smooth="yes"/>
      <point x="676" y="-64"/>
      <point x="702" y="-33"/>
      <point x="760" y="0" type="curve"/>
      <point x="477" y="700" type="line"/>
      <point x="280" y="700" type="line"/>
      <point x="-7" y="0" type="line"/>
      <point x="172" y="0" type="line"/>
      <point x="237" y="169" type="line"/>
      <point x="510" y="169" type="line"/>
      <point x="574" y="0" type="line"/>
      <point x="672" y="0" type="line"/>
      <point x="612" y="-38"/>
      <point x="585" y="-78"/>
      <point x="585" y="-127" type="curve" smooth="yes"/>
      <point x="585" y="-183"/>
      <point x="628" y="-221"/>
    </contour>
    <contour>
      <point x="289" y="306" type="line"/>
      <point x="375" y="530" type="line"/>
      <point x="459" y="306" type="line"/>
    </contour>
  </outline>
</glyph>
<glyph name="aogonek" format="2">
  <advance width="571"/>
  <unicode hex="0105"/>
  <outline>
    <contour>
      <point x="458" y="-221" type="curve" smooth="yes"/>
      <point x="490" y="-221"/>
      <point x="522" y="-212"/>
      <point x="545" y="-198" type="curve"/>
      <point x="524" y="-128" type="line"/>
      <point x="514" y="-135"/>
      <point x="500" y="-139"/>
      <point x="488" y="-139" type="curve" smooth="yes"/>
      <point x="459" y="-139"/>
      <point x="441" y="-124"/>
      <point x="441" y="-98" type="curve" smooth="yes"/>
      <point x="441" y="-64"/>
      <point x="467" y="-33"/>
      <point x="525" y="0" type="curve"/>
      <point x="525" y="339" type="line" smooth="yes"/>
      <point x="525" y="466"/>
      <point x="440" y="539"/>
      <point x="293" y="539" type="curve" smooth="yes"/>
      <point x="212" y="539"/>
      <point x="132" y="520"/>
      <point x="46" y="481" type="curve"/>
      <point x="104" y="362" type="line"/>
      <point x="173" y="391"/>
      <point x="222" y="404"/>
      <point x="264" y="404" type="curve" smooth="yes"/>
      <point x="331" y="404"/>
      <point x="365" y="378"/>
      <point x="365" y="325" type="curve" smooth="yes"/>
      <point x="365" y="299" type="line"/>
      <point x="326" y="309"/>
      <point x="286" y="314"/>
      <point x="245" y="314" type="curve" smooth="yes"/>
      <point x="107" y="314"/>
      <point x="27" y="256"/>
      <point x="27" y="155" type="curve" smooth="yes"/>
      <point x="27" y="58"/>
      <point x="106" y="-9"/>
      <point x="219" y="-9" type="curve" smooth="yes"/>
      <point x="276" y="-9"/>
      <point x="322" y="3"/>
      <point x="365" y="32" type="curve"/>
      <point x="365" y="0" type="line"/>
      <point x="437" y="0" type="line"/>
      <point x="377" y="-38"/>
      <point x="350" y="-78"/>
      <point x="350" y="-127" type="curve" smooth="yes"/>
      <point x="350" y="-183"/>
      <point x="393" y="-221"/>
    </contour>
    <contour>
      <point x="264" y="105" type="curve" smooth="yes"/>
      <point x="212" y="105"/>
      <point x="181" y="125"/>
      <point x="181" y="158" type="curve" smooth="yes"/>
      <point x="181" y="191"/>
      <point x="213" y="210"/>
      <point x="269" y="210" type="curve" smooth="yes"/>
      <point x="302" y="210"/>
      <point x="334" y="206"/>
      <point x="365" y="198" type="curve"/>
      <point x="365" y="130" type="line"/>
      <point x="337" y="113"/>
      <point x="303" y="105"/>
    </contour>
  </outline>
</glyph>
<glyph name="Eogonek" format="2">
  <advance width="657"/>
  <unicode hex="0118"/>
  <outline>
    <contour>
      <point x="634" y="-198" type="curve"/>
      <point x="613" y="-128" type="line"/>
      <point x="603" y="-135"/>
      <point x="589" y="-139"/>
      <point x="577" y="-139" type="curve" smooth="yes"/>
      <point x="548" y="-139"/>
      <point x="530" y="-124"/>
      <point x="530" y="-98" type="curve" smooth="yes"/>
      <point x="530" y="-64"/>
      <point x="556" y="-33"/>
      <point x="614" y="0" type="curve"/>
      <point x="614" y="149" type="line"/>
      <point x="230" y="149" type="line"/>
      <point x="230" y="281" type="line"/>
      <point x="481" y="281" type="line"/>
      <point x="481" y="425" type="line"/>
      <point x="230" y="425" type="line"/>
      <point x="230" y="551" type="line"/>
      <point x="610" y="551" type="line"/>
      <point x="610" y="700" type="line"/>
      <point x="58" y="700" type="line"/>
      <point x="58" y="0" type="line"/>
      <point x="526" y="0" type="line"/>
      <point x="466" y="-38"/>
      <point x="439" y="-78"/>
      <point x="439" y="-127" type="curve" smooth="yes"/>
      <point x="439" y="-183"/>
      <point x="482" y="-221"/>
      <point x="547" y="-221" type="curve" smooth="yes"/>
      <point x="579" y="-221"/>
      <point x="611" y="-212"/>
    </contour>
  </outline>
</glyph>
<glyph name="eogonek" format="2">
  <advance width="595"/>
  <unicode hex="0119"/>
  <outline>
    <contour>
      <point x="335" y="-221" type="curve" smooth="yes"/>
      <point x="367" y="-221"/>
      <point x="399" y="-212"/>
      <point x="422" y="-198" type="curve"/>
      <point x="401" y="-128" type="line"/>
      <point x="391" y="-135"/>
      <point x="377" y="-139"/>
      <point x="365" y="-139" type="curve" smooth="yes"/>
      <point x="336" y="-139"/>
      <point x="318" y="-124"/>
      <point x="318" y="-98" type="curve" smooth="yes"/>
      <point x="318" y="-64"/>
      <point x="344" y="-33"/>
      <point x="401" y="0" type="curve"/>
      <point x="450" y="11"/>
      <point x="492" y="34"/>
      <point x="535" y="70" type="curve"/>
      <point x="428" y="165" type="line"/>
      <point x="403" y="139"/>
      <point x="366" y="125"/>
      <point x="322" y="125" type="curve" smooth="yes"/>
      <point x="261" y="125"/>
      <point x="213" y="159"/>
      <point x="192" y="209" type="curve"/>
      <point x="569" y="209" type="line"/>
      <point x="569" y="249" type="line" smooth="yes"/>
      <point x="569" y="416"/>
      <point x="457" y="538"/>
      <point x="302" y="538" type="curve" smooth="yes"/>
      <point x="147" y="538"/>
      <point x="26" y="418"/>
      <point x="26" y="264" type="curve" smooth="yes"/>
      <point x="26" y="113"/>
      <point x="145" y="-2"/>
      <point x="301" y="-10" type="curve"/>
      <point x="250" y="-45"/>
      <point x="227" y="-82"/>
      <point x="227" y="-127" type="curve" smooth="yes"/>
      <point x="227" y="-183"/>
      <point x="270" y="-221"/>
    </contour>
    <contour>
      <point x="189" y="322" type="line"/>
      <point x="205" y="375"/>
      <point x="245" y="406"/>
      <point x="299" y="406" type="curve" smooth="yes"/>
      <point x="351" y="406"/>
      <point x="393" y="373"/>
      <point x="410" y="322" type="curve"/>
    </contour>
  </outline>
</glyph>
<glyph name="Hbar" format="2">
  <advance width="768"/>
  <unicode hex="0126"/>
  <outline>
    <contour>
      <point x="68" y="0" type="line"/>
      <point x="240" y="0" type="line"/>
      <point x="240" y="274" type="line"/>
      <point x="528" y="274" type="line"/>
      <point x="528" y="0" type="line"/>
      <point x="700" y="0" type="line"/>
      <point x="700" y="489" type="line"/>
      <point x="760" y="489" type="line"/>
      <point x="760" y="624" type="line"/>
      <point x="700" y="624" type="line"/>
      <point x="700" y="700" type="line"/>
      <point x="528" y="700" type="line"/>
      <point x="528" y="624" type="line"/>
      <point x="240" y="624" type="line"/>
      <point x="240" y="700" type="line"/>
      <point x="68" y="700" type="line"/>
      <point x="68" y="624" type="line"/>
      <point x="8" y="624" type="line"/>
      <point x="8" y="489" type="line"/>
      <point x="68" y="489" type="line"/>
    </contour>
    <contour>
      <point x="240" y="431" type="line"/>
      <point x="240" y="489" type="line"/>
      <point x="528" y="489" type="line"/>
      <point x="528" y="431" type="line"/>
    </contour>
  </outline>
</glyph>
<glyph name="hbar" format="2">
  <advance width="611"/>
  <unicode hex="0127"/>
  <outline>
    <contour>
      <point x="50" y="0" type="line"/>
      <point x="212" y="0" type="line"/>
      <point x="212" y="358" type="line"/>
      <point x="234" y="385"/>
      <point x="266" y="400"/>
      <point x="307" y="400" type="curve" smooth="yes"/>
      <point x="365" y="400"/>
      <point x="403" y="362"/>
      <point x="403" y="304" type="curve" smooth="yes"/>
      <point x="403" y="0" type="line"/>
      <point x="565" y="0" type="line"/>
      <point x="565" y="326" type="line" smooth="yes"/>
      <point x="565" y="451"/>
      <point x="478" y="539"/>
      <point x="354" y="539" type="curve" smooth="yes"/>
      <point x="300" y="539"/>
      <point x="251" y="523"/>
      <point x="212" y="493" type="curve"/>
      <point x="212" y="576" type="line"/>
      <point x="340" y="576" type="line"/>
      <point x="340" y="671" type="line"/>
      <point x="212" y="671" type="line"/>
      <point x="212" y="735" type="line"/>
      <point x="50" y="700" type="line"/>
      <point x="50" y="671" type="line"/>
      <point x="-5" y="671" type="line"/>
      <point x="-5" y="576" type="line"/>
      <point x="50" y="576" type="line"/>
    </contour>
  </outline>
</glyph>
<glyph name="Iogonek" format="2">
  <advance width="288"/>
  <unicode hex="012E"/>
  <outline>
    <contour>
      <point x="163" y="-221" type="curve" smooth="yes"/>
      <point x="195" y="-221"/>
      <point x="227" y="-212"/>
      <point x="250" y="-198" type="curve"/>
      <point x="229" y="-128" type="line"/>
      <point x="219" y="-135"/>
      <point x="205" y="-139"/>
      <point x="193" y="-139" type="curve" smooth="yes"/>
      <point x="164" y="-139"/>
      <point x="146" y="-124"/>
      <point x="146" y="-98" type="curve" smooth="yes"/>
      <point x="146" y="-64"/>
      <point x="172" y="-33"/>
      <point x="230" y="0" type="curve"/>
      <point x="230" y="700" type="line"/>
      <point x="58" y="700" type="line"/>
      <point x="58" y="0" type="line"/>
      <point x="142" y="0" type="line"/>
      <point x="82" y="-38"/>
      <point x="55" y="-78"/>
      <point x="55" y="-127" type="curve" smooth="yes"/>
      <point x="55" y="-183"/>
      <point x="98" y="-221"/>
    </contour>
  </outline>
</glyph>
<glyph name="iogonek" format="2">
  <advance width="262"/>
  <unicode hex="012F"/>
  <outline>
    <contour>
      <point x="131" y="578" type="curve" smooth="yes"/>
      <point x="180" y="578"/>
      <point x="220" y="618"/>
      <point x="220" y="667" type="curve" smooth="yes"/>
      <point x="220" y="716"/>
      <point x="180" y="756"/>
      <point x="131" y="756" type="curve" smooth="yes"/>
      <point x="82" y="756"/>
      <point x="42" y="716"/>
      <point x="42" y="667" type="curve" smooth="yes"/>
      <point x="42" y="618"/>
      <point x="82" y="578"/>
    </contour>
    <contour>
      <point x="145" y="-221" type="curve" smooth="yes"/>
      <point x="177" y="-221"/>
      <point x="209" y="-212"/>
      <point x="232" y="-198" type="curve"/>
      <point x="211" y="-128" type="line"/>
      <point x="201" y="-135"/>
      <point x="187" y="-139"/>
      <point x="175" y="-139" type="curve" smooth="yes"/>
      <point x="146" y="-139"/>
      <point x="128" y="-124"/>
      <point x="128" y="-98" type="curve" smooth="yes"/>
      <point x="128" y="-64"/>
      <point x="154" y="-33"/>
      <point x="212" y="0" type="curve"/>
      <point x="212" y="529" type="line"/>
      <point x="50" y="529" type="line"/>
      <point x="50" y="0" type="line"/>
      <point x="124" y="0" type="line"/>
      <point x="64" y="-38"/>
      <point x="37" y="-78"/>
      <point x="37" y="-127" type="curve" smooth="yes"/>
      <point x="37" y="-183"/>
      <point x="80" y="-221"/>
    </contour>
  </outline>
</glyph>
<glyph name="dotlessi" format="2">
  <advance width="262"/>
  <unicode hex="0131"/>
  <anchor x="131" y="529" name="top"/>
  <anchor x="131" y="0" name="bottom"/>
  <outline>
    <contour>
      <point x="50" y="0" type="line"/>
      <point x="212" y="0" type="line"/>
      <point x="212" y="529" type="line"/>
      <point x="50" y="529" type="line"/>
    </contour>
  </outline>
</glyph>
<glyph name="kgreenlandic" format="2">
  <advance width="597"/>
  <unicode hex="0138"/>
  <outline>
    <contour>
      <point x="50" y="0" type="line"/>
      <point x="212" y="0" type="line"/>
      <point x="212" y="237" type="line"/>
      <point x="415" y="0" type="line"/>
      <point x="620" y="0" type="line"/>
      <point x="369" y="290" type="line"/>
      <point x="604" y="529" type="line"/>
      <point x="423" y="529" type="line"/>
      <point x="212" y="313" type="line"/>
      <point x="212" y="529" type="line"/>
      <point x="50" y="529" type="line"/>
    </contour>
  </outline>
</glyph>
<glyph name="lslash" format="2">
  <advance width="308"/>
  <unicode hex="0142"/>
  <outline>
    <contour>
      <point x="75" y="0" type="line"/>
      <point x="237" y="0" type="line"/>
      <point x="237" y="347" type="line"/>
      <point x="305" y="393" type="line"/>
      <point x="305" y="538" type="line"/>
      <point x="237" y="492" type="line"/>
      <point x="237" y="735" type="line"/>
      <point x="75" y="700" type="line"/>
      <point x="75" y="382" type="line"/>
      <point x="7" y="336" type="line"/>
      <point x="7" y="191" type="line"/>
      <point x="75" y="237" type="line"/>
    </contour>
  </outline>
</glyph>
<glyph name="Eng" format="2">
  <advance width="758"/>
  <unicode hex="014A"/>
  <outline>
    <contour>
      <point x="516" y="-214" type="curve" smooth="yes"/>
      <point x="633" y="-214"/>
      <point x="700" y="-154"/>
      <point x="700" y="-48" type="curve" smooth="yes"/>
      <point x="700" y="700" type="line"/>
      <point x="538" y="700" type="line"/>
      <point x="538" y="288" type="line"/>
      <point x="215" y="700" type="line"/>
      <point x="58" y="700" type="line"/>
      <point x="58" y="0" type="line"/>
      <point x="220" y="0" type="line"/>
      <point x="220" y="416" type="line"/>
      <point x="538" y="6" type="line"/>
      <point x="538" y="-38" type="line" smooth="yes"/>
      <point x="538" y="-71"/>
      <point x="520" y="-86"/>
      <point x="482" y="-86" type="curve" smooth="yes"/>
      <point x="462" y="-86"/>
      <point x="450" y="-85"/>
      <point x="434" y="-82" type="curve"/>
      <point x="434" y="-204" type="line"/>
      <point x="452" y="-210"/>
      <point x="488" y="-214"/>
    </contour>
  </outline>
</glyph>
<glyph name="eng" format="2">
  <advance width="611"/>
  <unicode hex="014B"/>
  <outline>
    <contour>
      <point x="381" y="-218" type="curve" smooth="yes"/>
      <point x="498" y="-218"/>
      <point x="565" y="-158"/>
      <point x="565" y="-52" type="curve" smooth="yes"/>
      <point x="565" y="326" type="line" smooth="yes"/>
      <point x="565" y="451"/>
      <point x="478" y="539"/>
      <point x="354" y="539" type="curve" smooth="yes"/>
      <point x="300" y="539"/>
      <point x="251" y="523"/>
      <point x="212" y="493" type="curve"/>
      <point x="212" y="529" type="line"/>
      <point x="50" y="529" type="line"/>
      <point x="50" y="0" type="line"/>
      <point x="212" y="0" type="line"/>
      <point x="212" y="358" type="line"/>
      <point x="234" y="385"/>
      <point x="266" y="400"/>
      <point x="307" y="400" type="curve" smooth="yes"/>
      <point x="365" y="400"/>
      <point x="403" y="362"/>
      <point x="403" y="304" type="curve" smooth="yes"/>
      <point x="403" y="-42" type="line" smooth="yes"/>
      <point x="403" y="-75"/>
      <point x="385" y="-90"/>
      <point x="347" y="-90" type="curve" smooth="yes"/>
      <point x="328" y="-90"/>
      <point x="315" y="-89"/>
      <point x="299" y="-86" type="curve"/>
      <point x="299" y="-208" type="line"/>
      <point x="317" y="-214"/>
      <point x="353" y="-218"/>
    </contour>
  </outline>
</glyph>
<glyph name="OE" format="2">
  <advance width="1106"/>
  <unicode hex="0152"/>
  <outline>
    <contour>
      <point x="402" y="0" type="curve" smooth="yes"/>
      <point x="1063" y="0" type="line"/>
      <point x="1063" y="149" type="line"/>
      <point x="699" y="149" type="line"/>
      <point x="727" y="188"/>
      <point x="747" y="233"/>
      <point x="757" y="281" type="curve"/>
      <point x="940" y="281" type="line"/>
      <point x="940" y="425" type="line"/>
      <point x="756" y="425" type="line"/>
      <point x="746" y="471"/>
      <point x="726" y="514"/>
      <point x="699" y="551" type="curve"/>
      <point x="1063" y="551" type="line"/>
      <point x="1063" y="700" type="line"/>
      <point x="402" y="700" type="line" smooth="yes"/>
      <point x="199" y="700"/>
      <point x="38" y="545"/>
      <point x="38" y="350" type="curve" smooth="yes"/>
      <point x="38" y="155"/>
      <point x="199" y="0"/>
    </contour>
    <contour>
      <point x="402" y="152" type="curve" smooth="yes"/>
      <point x="297" y="152"/>
      <point x="215" y="238"/>
      <point x="215" y="350" type="curve" smooth="yes"/>
      <point x="215" y="462"/>
      <point x="297" y="548"/>
      <point x="402" y="548" type="curve" smooth="yes"/>
      <point x="507" y="548"/>
      <point x="589" y="462"/>
      <point x="589" y="350" type="curve" smooth="yes"/>
      <point x="589" y="238"/>
      <point x="507" y="152"/>
    </contour>
  </outline>
</glyph>
<glyph name="oe" format="2">
  <advance width="1013"/>
  <unicode hex="0153"/>
  <outline>
    <contour>
      <point x="313" y="-10" type="curve" smooth="yes"/>
      <point x="396" y="-10"/>
      <point x="469" y="24"/>
      <point x="520" y="80" type="curve"/>
      <point x="571" y="24"/>
      <point x="646" y="-10"/>
      <point x="732" y="-10" type="curve" smooth="yes"/>
      <point x="820" y="-10"/>
      <point x="886" y="14"/>
      <point x="953" y="70" type="curve"/>
      <point x="846" y="165" type="line"/>
      <point x="821" y="139"/>
      <point x="784" y="125"/>
      <point x="740" y="125" type="curve" smooth="yes"/>
      <point x="679" y="125"/>
      <point x="631" y="159"/>
      <point x="610" y="209" type="curve"/>
      <point x="987" y="209" type="line"/>
      <point x="987" y="249" type="line"/>
      <point x="987" y="416"/>
      <point x="875" y="538"/>
      <point x="720" y="538" type="curve" smooth="yes"/>
      <point x="638" y="538"/>
      <point x="567" y="505"/>
      <point x="518" y="450" type="curve"/>
      <point x="468" y="505"/>
      <point x="395" y="539"/>
      <point x="313" y="539" type="curve" smooth="yes"/>
      <point x="152" y="539"/>
      <point x="26" y="418"/>
      <point x="26" y="264" type="curve" smooth="yes"/>
      <point x="26" y="110"/>
      <point x="152" y="-10"/>
    </contour>
    <contour>
      <point x="313" y="130" type="curve" smooth="yes"/>
      <point x="240" y="130"/>
      <point x="184" y="189"/>
      <point x="184" y="264" type="curve" smooth="yes"/>
      <point x="184" y="340"/>
      <point x="241" y="399"/>
      <point x="313" y="399" type="curve" smooth="yes"/>
      <point x="385" y="399"/>
      <point x="442" y="340"/>
      <point x="442" y="264" type="curve" smooth="yes"/>
      <point x="442" y="189"/>
      <point x="386" y="130"/>
    </contour>
    <contour>
      <point x="607" y="322" type="line"/>
      <point x="623" y="375"/>
      <point x="663" y="406"/>
      <point x="717" y="406" type="curve" smooth="yes"/>
      <point x="769" y="406"/>
      <point x="811" y="373"/>
      <point x="828" y="322" type="curve"/>
    </contour>
  </outline>
</glyph>
<glyph name="scedilla" format="2">
  <advance width="509"/>
  <unicode hex="015F"/>
  <outline>
    <contour>
      <point x="238" y="-239" type="curve" smooth="yes"/>
      <point x="317" y="-239"/>
      <point x="377" y="-193"/>
      <point x="377" y="-134" type="curve" smooth="yes"/>
      <point x="377" y="-83"/>
      <point x="341" y="-48"/>
      <point x="282" y="-42" type="curve"/>
      <point x="292" y="-8" type="line"/>
      <point x="412" y="3"/>
      <point x="497" y="75"/>
      <point x="497" y="169" type="curve" smooth="yes"/>
      <point x="497" y="252"/>
      <point x="438" y="308"/>
      <point x="334" y="323" type="curve" smooth="yes"/>
      <point x="229" y="339" type="line" smooth="yes"/>
      <point x="184" y="346"/>
      <point x="167" y="357"/>
      <point x="167" y="379" type="curve" smooth="yes"/>
      <point x="167" y="402"/>
      <point x="194" y="417"/>
      <point x="236" y="417" type="curve" smooth="yes"/>
      <point x="288" y="417"/>
      <point x="339" y="402"/>
      <point x="396" y="369" type="curve"/>
      <point x="473" y="473" type="line"/>
      <point x="407" y="515"/>
      <point x="329" y="537"/>
      <point x="252" y="537" type="curve" smooth="yes"/>
      <point x="110" y="537"/>
      <point x="24" y="472"/>
      <point x="24" y="365" type="curve" smooth="yes"/>
      <point x="24" y="278"/>
      <point x="81" y="223"/>
      <point x="186" y="207" type="curve" smooth="yes"/>
      <point x="291" y="191" type="line" smooth="yes"/>
      <point x="328" y="185"/>
      <point x="345" y="173"/>
      <point x="345" y="153" type="curve" smooth="yes"/>
      <point x="345" y="127"/>
      <point x="311" y="111"/>
      <point x="258" y="111" type="curve" smooth="yes"/>
      <point x="204" y="111"/>
      <point x="153" y="128"/>
      <point x="86" y="168" type="curve"/>
      <point x="9" y="59" type="line"/>
      <point x="62" y="20"/>
      <point x="134" y="-3"/>
      <point x="217" y="-9" type="curve"/>
      <point x="190" y="-99" type="line"/>
      <point x="237" y="-99" type="line" smooth="yes"/>
      <point x="267" y="-99"/>
      <point x="286" y="-112"/>
      <point x="286" y="-132" type="curve" smooth="yes"/>
      <point x="286" y="-154"/>
      <point x="268" y="-166"/>
      <point x="235" y="-166" type="curve" smooth="yes"/>
      <point x="209" y="-166"/>
      <point x="183" y="-156"/>
      <point x="159" y="-138" type="curve"/>
      <point x="108" y="-192" type="line"/>
      <point x="144" y="-224"/>
      <point x="186" y="-239"/>
    </contour>
  </outline>
</glyph>
<glyph name="Tcedilla" format="2">
  <advance width="666"/>
  <unicode hex="0162"/>
  <outline>
    <contour>
      <point x="311" y="-239" type="curve" smooth="yes"/>
      <point x="390" y="-239"/>
      <point x="450" y="-193"/>
      <point x="450" y="-134" type="curve" smooth="yes"/>
      <point x="450" y="-83"/>
      <point x="414" y="-48"/>
      <point x="355" y="-42" type="curve"/>
      <point x="368" y="0" type="line"/>
      <point x="419" y="0" type="line"/>
      <point x="419" y="548" type="line"/>
      <point x="648" y="548" type="line"/>
      <point x="648" y="700" type="line"/>
      <point x="18" y="700" type="line"/>
      <point x="18" y="548" type="line"/>
      <point x="247" y="548" type="line"/>
      <point x="247" y="0" type="line"/>
      <point x="292" y="0" type="line"/>
      <point x="263" y="-99" type="line"/>
      <point x="310" y="-99" type="line" smooth="yes"/>
      <point x="340" y="-99"/>
      <point x="359" y="-112"/>
      <point x="359" y="-132" type="curve" smooth="yes"/>
      <point x="359" y="-154"/>
      <point x="341" y="-166"/>
      <point x="308" y="-166" type="curve" smooth="yes"/>
      <point x="282" y="-166"/>
      <point x="256" y="-156"/>
      <point x="232" y="-138" type="curve"/>
      <point x="181" y="-192" type="line"/>
      <point x="217" y="-224"/>
      <point x="259" y="-239"/>
    </contour>
  </outline>
</glyph>
<glyph name="tcedilla" format="2">
  <advance width="448"/>
  <unicode hex="0163"/>
  <outline>
    <contour>
      <point x="261" y="-239" type="curve" smooth="yes"/>
      <point x="340" y="-239"/>
      <point x="400" y="-193"/>
      <point x="400" y="-134" type="curve" smooth="yes"/>
      <point x="400" y="-83"/>
      <point x="364" y="-48"/>
      <point x="305" y="-42" type="curve"/>
      <point x="316" y="-7" type="line"/>
      <point x="316" y="-7"/>
      <point x="317" y="-7"/>
      <point x="317" y="-7" type="curve"/>
      <point x="348" y="-7"/>
      <point x="400" y="0"/>
      <point x="430" y="9" type="curve"/>
      <point x="430" y="140" type="line"/>
      <point x="403" y="132"/>
      <point x="383" y="129"/>
      <point x="357" y="129" type="curve" smooth="yes"/>
      <point x="305" y="129"/>
      <point x="287" y="146"/>
      <point x="287" y="193" type="curve" smooth="yes"/>
      <point x="287" y="394" type="line"/>
      <point x="435" y="394" type="line"/>
      <point x="435" y="529" type="line"/>
      <point x="287" y="529" type="line"/>
      <point x="287" y="700" type="line"/>
      <point x="125" y="665" type="line"/>
      <point x="125" y="529" type="line"/>
      <point x="18" y="529" type="line"/>
      <point x="18" y="394" type="line"/>
      <point x="125" y="394" type="line"/>
      <point x="125" y="161" type="line" smooth="yes"/>
      <point x="125" y="74"/>
      <point x="165" y="20"/>
      <point x="243" y="1" type="curve"/>
      <point x="213" y="-99" type="line"/>
      <point x="260" y="-99" type="line" smooth="yes"/>
      <point x="290" y="-99"/>
      <point x="309" y="-112"/>
      <point x="309" y="-132" type="curve" smooth="yes"/>
      <point x="309" y="-154"/>
      <point x="291" y="-166"/>
      <point x="258" y="-166" type="curve" smooth="yes"/>
      <point x="232" y="-166"/>
      <point x="206" y="-156"/>
      <point x="182" y="-138" type="curve"/>
      <point x="131" y="-192" type="line"/>
      <point x="167" y="-224"/>
      <point x="209" y="-239"/>
    </contour>
  </outline>
</glyph>
<glyph name="Tbar" format="2">
  <advance width="666"/>
  <unicode hex="0166"/>
  <outline>
    <contour>
      <point x="247" y="0" type="line"/>
      <point x="419" y="0" type="line"/>
      <point x="419" y="269" type="line"/>
      <point x="551" y="269" type="line"/>
      <point x="551" y="404" type="line"/>
      <point x="419" y="404" type="line"/>
      <point x="419" y="548" type="line"/>
      <point x="648" y="548" type="line"/>
      <point x="648" y="700" type="line"/>
      <point x="18" y="700" type="line"/>
      <point x="18" y="548" type="line"/>
      <point x="247" y="548" type="line"/>
      <point x="247" y="404" type="line"/>
      <point x="115" y="404" type="line"/>
      <point x="115" y="269" type="line"/>
      <point x="247" y="269" type="line"/>
    </contour>
  </outline>
</glyph>
<glyph name="tbar" format="2">
  <advance width="448"/>
  <unicode hex="0167"/>
  <outline>
    <contour>
      <point x="317" y="-7" type="curve" smooth="yes"/>
      <point x="348" y="-7"/>
      <point x="400" y="0"/>
      <point x="430" y="9" type="curve"/>
      <point x="430" y="140" type="line"/>
      <point x="403" y="132"/>
      <point x="383" y="129"/>
      <point x="357" y="129" type="curve" smooth="yes"/>
      <point x="305" y="129"/>
      <point x="287" y="146"/>
      <point x="287" y="193" type="curve" smooth="yes"/>
      <point x="287" y="215" type="line"/>
      <point x="434" y="215" type="line"/>
      <point x="434" y="330" type="line"/>
      <point x="287" y="330" type="line"/>
      <point x="287" y="394" type="line"/>
      <point x="435" y="394" type="line"/>
      <point x="435" y="529" type="line"/>
      <point x="287" y="529" type="line"/>
      <point x="287" y="700" type="line"/>
      <point x="125" y="665" type="line"/>
      <point x="125" y="529" type="line"/>
      <point x="18" y="529" type="line"/>
      <point x="18" y="394" type="line"/>
      <point x="125" y="394" type="line"/>
      <point x="125" y="330" type="line"/>
      <point x="18" y="330" type="line"/>
      <point x="18" y="215" type="line"/>
      <point x="125" y="215" type="line"/>
      <point x="125" y="161" type="line" smooth="yes"/>
      <point x="125" y="50"/>
      <point x="190" y="-7"/>
    </contour>
  </outline>
</glyph>
<glyph name="Uogonek" format="2">
  <advance width="733"/>
  <unicode hex="0172"/>
  <outline>
    <contour>
      <point x="385" y="-221" type="curve" smooth="yes"/>
      <point x="417" y="-221"/>
      <point x="449" y="-212"/>
      <point x="472" y="-198" type="curve"/>
      <point x="451" y="-128" type="line"/>
      <point x="441" y="-135"/>
      <point x="427" y="-139"/>
      <point x="415" y="-139" type="curve" smooth="yes"/>
      <point x="386" y="-139"/>
      <point x="368" y="-124"/>
      <point x="368" y="-98" type="curve" smooth="yes"/>
      <point x="368" y="-65"/>
      <point x="393" y="-34"/>
      <point x="449" y="-2" type="curve"/>
      <point x="594" y="29"/>
      <point x="685" y="143"/>
      <point x="685" y="305" type="curve" smooth="yes"/>
      <point x="685" y="700" type="line"/>
      <point x="513" y="700" type="line"/>
      <point x="513" y="305" type="line" smooth="yes"/>
      <point x="513" y="210"/>
      <point x="456" y="149"/>
      <point x="367" y="149" type="curve" smooth="yes"/>
      <point x="278" y="149"/>
      <point x="220" y="210"/>
      <point x="220" y="305" type="curve" smooth="yes"/>
      <point x="220" y="700" type="line"/>
      <point x="48" y="700" type="line"/>
      <point x="48" y="305" type="line" smooth="yes"/>
      <point x="48" y="118"/>
      <point x="165" y="-3"/>
      <point x="351" y="-10" type="curve"/>
      <point x="300" y="-45"/>
      <point x="277" y="-82"/>
      <point x="277" y="-127" type="curve" smooth="yes"/>
      <point x="277" y="-183"/>
      <point x="320" y="-221"/>
    </contour>
  </outline>
</glyph>
<glyph name="uogonek" format="2">
  <advance width="611"/>
  <unicode hex="0173"/>
  <outline>
    <contour>
      <point x="496" y="-221" type="curve" smooth="yes"/>
      <point x="528" y="-221"/>
      <point x="560" y="-212"/>
      <point x="583" y="-198" type="curve"/>
      <point x="562" y="-128" type="line"/>
      <point x="552" y="-135"/>
      <point x="538" y="-139"/>
      <point x="526" y="-139" type="curve" smooth="yes"/>
      <point x="497" y="-139"/>
      <point x="479" y="-124"/>
      <point x="479" y="-98" type="curve" smooth="yes"/>
      <point x="479" y="-64"/>
      <point x="503" y="-32"/>
      <point x="561" y="1" type="curve"/>
      <point x="561" y="529" type="line"/>
      <point x="399" y="529" type="line"/>
      <point x="399" y="171" type="line"/>
      <point x="377" y="144"/>
      <point x="345" y="129"/>
      <point x="304" y="129" type="curve" smooth="yes"/>
      <point x="246" y="129"/>
      <point x="208" y="167"/>
      <point x="208" y="225" type="curve" smooth="yes"/>
      <point x="208" y="529" type="line"/>
      <point x="46" y="529" type="line"/>
      <point x="46" y="203" type="line" smooth="yes"/>
      <point x="46" y="78"/>
      <point x="133" y="-10"/>
      <point x="257" y="-10" type="curve" smooth="yes"/>
      <point x="311" y="-10"/>
      <point x="360" y="6"/>
      <point x="399" y="36" type="curve"/>
      <point x="399" y="0" type="line"/>
      <point x="475" y="0" type="line"/>
      <point x="415" y="-38"/>
      <point x="388" y="-78"/>
      <point x="388" y="-127" type="curve" smooth="yes"/>
      <point x="388" y="-183"/>
      <point x="431" y="-221"/>
    </contour>
  </outline>
</glyph>
<glyph name="dotlessj" format="2">
  <advance width="262"/>
  <unicode hex="0237"/>
  <anchor x="131" y="529" name="top"/>
  <outline>
    <contour>
      <point x="28" y="-214" type="curve" smooth="yes"/>
      <point x="145" y="-214"/>
      <point x="212" y="-154"/>
      <point x="212" y="-48" type="curve" smooth="yes"/>
      <point x="212" y="529" type="line"/>
      <point x="50" y="529" type="line"/>
      <point x="50" y="-38" type="line" smooth="yes"/>
      <point x="50" y="-71"/>
      <point x="32" y="-86"/>
      <point x="-6" y="-86" type="curve" smooth="yes"/>
      <point x="-25" y="-86"/>
      <point x="-38" y="-85"/>
      <point x="-54" y="-82" type="curve"/>
      <point x="-54" y="-204" type="line"/>
      <point x="-36" y="-210"/>
      <point x="0" y="-214"/>
    </contour>
  </outline>
</glyph>
<glyph name="breve" format="2">
  <advance width="600"/>
  <unicode hex="02D8"/>
  <outline>
    <contour>
      <point x="300" y="603" type="curve"/>
      <point x="395" y="603"/>
      <point x="461" y="653"/>
      <point x="484" y="743" type="curve"/>
      <point x="387" y="768" type="line"/>
      <point x="371" y="717"/>
      <point x="342" y="692"/>
      <point x="300" y="692" type="curve"/>
      <point x="258" y="692"/>
      <point x="230" y="716"/>
      <point x="213" y="768" type="curve"/>
      <point x="116" y="743" type="line"/>
      <point x="139" y="653"/>
      <point x="205" y="603"/>
    </contour>
  </outline>
</glyph>
<glyph name="ogonek" format="2">
  <advance width="600"/>
  <unicode hex="02DB"/>
  <outline>
    <contour>
      <point x="304" y="-221" type="curve" smooth="yes"/>
      <point x="336" y="-221"/>
      <point x="368" y="-212"/>
      <point x="391" y="-198" type="curve"/>
      <point x="370" y="-128" type="line"/>
      <point x="360" y="-135"/>
      <point x="346" y="-139"/>
      <point x="334" y="-139" type="curve" smooth="yes"/>
      <point x="305" y="-139"/>
      <point x="287" y="-124"/>
      <point x="287" y="-98" type="curve" smooth="yes"/>
      <point x="287" y="-64"/>
      <point x="313" y="-33"/>
      <point x="371" y="0" type="curve"/>
      <point x="322" y="22" type="line"/>
      <point x="235" y="-23"/>
      <point x="196" y="-69"/>
      <point x="196" y="-127" type="curve" smooth="yes"/>
      <point x="196" y="-183"/>
      <point x="239" y="-221"/>
    </contour>
  </outline>
</glyph>
<glyph name="gravecomb" format="2">
  <unicode hex="0300"/>
  <anchor x="320" y="529" name="_top"/>
  <outline>
    <contour>
      <point x="266" y="611" type="line"/>
      <point x="396" y="611" type="line"/>
      <point x="309" y="747" type="line"/>
      <point x="127" y="747" type="line"/>
    </contour>
  </outline>
</glyph>
<glyph name="uni0304" format="2">
  <unicode hex="0304"/>
  <anchor x="300" y="529" name="_top"/>
  <outline>
    <contour>
      <point x="133" y="626" type="line"/>
      <point x="467" y="626" type="line"/>
      <point x="467" y="726" type="line"/>
      <point x="133" y="726" type="line"/>
    </contour>
  </outline>
</glyph>
<glyph name="uni0308" format="2">
  <unicode hex="0308"/>
  <anchor x="300" y="529" name="_top"/>
  <outline>
    <contour>
      <point x="178" y="602" type="curve" smooth="yes"/>
      <point x="224" y="602"/>
      <point x="259" y="636"/>
      <point x="259" y="684" type="curve" smooth="yes"/>
      <point x="259" y="732"/>
      <point x="224" y="766"/>
      <point x="178" y="766" type="curve" smooth="yes"/>
      <point x="132" y="766"/>
      <point x="97" y="732"/>
      <point x="97" y="684" type="curve" smooth="yes"/>
      <point x="97" y="636"/>
      <point x="132" y="602"/>
    </contour>
    <contour>
      <point x="422" y="602" type="curve" smooth="yes"/>
      <point x="468" y="602"/>
      <point x="503" y="636"/>
      <point x="503" y="684" type="curve" smooth="yes"/>
      <point x="503" y="732"/>
      <point x="468" y="766"/>
      <point x="422" y="766" type="curve" smooth="yes"/>
      <point x="376" y="766"/>
      <point x="341" y="732"/>
      <point x="341" y="684" type="curve" smooth="yes"/>
      <point x="341" y="636"/>
      <point x="376" y="602"/>
    </contour>
  </outline>
</glyph>
<glyph name="uni030C" format="2">
  <unicode hex="030C"/>
  <anchor x="300" y="529" name="_top"/>
  <outline>
    <contour>
      <point x="232" y="750" type="line"/>
      <point x="99" y="750" type="line"/>
      <point x="218" y="609" type="line"/>
      <point x="382" y="609" type="line"/>
      <point x="501" y="750" type="line"/>
      <point x="372" y="750" type="line"/>
      <point x="302" y="679" type="line"/>
    </contour>
  </outline>
</glyph>
<glyph name="uni0326" format="2">
  <unicode hex="0326"/>
  <guideline x="299" y="-6" angle="90.0" identifier="TB9epO5wox"/>
  <anchor x="299" y="0" name="_bottom"/>
  <outline>
    <contour>
      <point x="169" y="-295" type="line"/>
      <point x="286" y="-295" type="line"/>
      <point x="375" y="-80" type="line"/>
      <point x="224" y="-80" type="line"/>
    </contour>
  </outline>
</glyph>
<glyph name="emdash" format="2">
  <advance width="713"/>
  <unicode hex="2014"/>
  <outline>
    <contour>
      <point x="38" y="219" type="line"/>
      <point x="675" y="219" type="line"/>
      <point x="675" y="354" type="line"/>
      <point x="38" y="354" type="line"/>
    </contour>
  </outline>
</glyph>
<glyph name="bullet" format="2">
  <advance width="366"/>
  <unicode hex="2022"/>
  <outline>
    <contour>
      <point x="183" y="201" type="curve" smooth="yes"/>
      <point x="253" y="201"/>
      <point x="307" y="255"/>
      <point x="307" y="323" type="curve" smooth="yes"/>
      <point x="307" y="391"/>
      <point x="253" y="445"/>
      <point x="183" y="445" type="curve" smooth="yes"/>
      <point x="113" y="445"/>
      <point x="59" y="391"/>
      <point x="59" y="323" type="curve" smooth="yes"/>
      <point x="59" y="255"/>
      <point x="113" y="201"/>
    </contour>
  </outline>
</glyph>
<glyph name="guilsinglleft" format="2">
  <advance width="448"/>
  <unicode hex="2039"/>
  <outline>
    <contour>
      <point x="260" y="0" type="line"/>
      <point x="427" y="0" type="line"/>
      <point x="185" y="266" type="line"/>
      <point x="424" y="529" type="line"/>
      <point x="260" y="529" type="line"/>
      <point x="14" y="265" type="line"/>
    </contour>
  </outline>
</glyph>
<glyph name="fraction" format="2">
  <advance width="577"/>
  <unicode hex="2044"/>
  <outline>
    <contour>
      <point x="13" y="0" type="line"/>
      <point x="131" y="0" type="line"/>
      <point x="529" y="700" type="line"/>
      <point x="410" y="700" type="line"/>
    </contour>
  </outline>
</glyph>
<glyph name="uni2070" format="2">
  <advance width="367"/>
  <unicode hex="2070"/>
  <outline>
    <contour>
      <point x="184" y="345" type="curve" smooth="yes"/>
      <point x="284" y="345"/>
      <point x="348" y="416"/>
      <point x="348" y="526" type="curve" smooth="yes"/>
      <point x="348" y="634"/>
      <point x="283" y="706"/>
      <point x="184" y="706" type="curve" smooth="yes"/>
      <point x="85" y="706"/>
      <point x="20" y="634"/>
      <point x="20" y="526" type="curve" smooth="yes"/>
      <point x="20" y="416"/>
      <point x="84" y="345"/>
    </contour>
    <contour>
      <point x="184" y="429" type="curve" smooth="yes"/>
      <point x="140" y="429"/>
      <point x="115" y="465"/>
      <point x="115" y="526" type="curve" smooth="yes"/>
      <point x="115" y="585"/>
      <point x="141" y="622"/>
      <point x="184" y="622" type="curve" smooth="yes"/>
      <point x="227" y="622"/>
      <point x="254" y="585"/>
      <point x="254" y="526" type="curve" smooth="yes"/>
      <point x="254" y="465"/>
      <point x="228" y="429"/>
    </contour>
  </outline>
</glyph>
<glyph name="uni2075" format="2">
  <advance width="330"/>
  <unicode hex="2075"/>
  <outline>
    <contour>
      <point x="156" y="344" type="curve" smooth="yes"/>
      <point x="249" y="344"/>
      <point x="312" y="393"/>
      <point x="312" y="465" type="curve" smooth="yes"/>
      <point x="312" y="532"/>
      <point x="260" y="576"/>
      <point x="178" y="576" type="curve" smooth="yes"/>
      <point x="158" y="576"/>
      <point x="142" y="574"/>
      <point x="123" y="568" type="curve"/>
      <point x="125" y="619" type="line"/>
      <point x="292" y="619" type="line"/>
      <point x="292" y="700" type="line"/>
      <point x="47" y="700" type="line"/>
      <point x="38" y="508" type="line"/>
      <point x="104" y="488" type="line"/>
      <point x="120" y="497"/>
      <point x="140" y="501"/>
      <point x="155" y="501" type="curve" smooth="yes"/>
      <point x="189" y="501"/>
      <point x="212" y="485"/>
      <point x="212" y="464" type="curve" smooth="yes"/>
      <point x="212" y="441"/>
      <point x="192" y="427"/>
      <point x="159" y="427" type="curve" smooth="yes"/>
      <point x="130" y="427"/>
      <point x="107" y="436"/>
      <point x="78" y="459" type="curve"/>
      <point x="20" y="391" type="line"/>
      <point x="56" y="361"/>
      <point x="104" y="344"/>
    </contour>
  </outline>
</glyph>
<glyph name="uni2076" format="2">
  <advance width="343"/>
  <unicode hex="2076"/>
  <outline>
    <contour>
      <point x="185" y="344" type="curve" smooth="yes"/>
      <point x="265" y="344"/>
      <point x="324" y="394"/>
      <point x="324" y="461" type="curve" smooth="yes"/>
      <point x="324" y="524"/>
      <point x="274" y="567"/>
      <point x="201" y="567" type="curve" smooth="yes"/>
      <point x="167" y="567"/>
      <point x="137" y="555"/>
      <point x="116" y="534" type="curve"/>
      <point x="120" y="593"/>
      <point x="145" y="622"/>
      <point x="191" y="622" type="curve" smooth="yes"/>
      <point x="222" y="622"/>
      <point x="242" y="615"/>
      <point x="263" y="595" type="curve"/>
      <point x="321" y="663" type="line"/>
      <point x="293" y="689"/>
      <point x="245" y="707"/>
      <point x="199" y="707" type="curve" smooth="yes"/>
      <point x="91" y="707"/>
      <point x="18" y="633"/>
      <point x="18" y="523" type="curve" smooth="yes"/>
      <point x="18" y="416"/>
      <point x="85" y="344"/>
    </contour>
    <contour>
      <point x="186" y="492" type="curve" smooth="yes"/>
      <point x="212" y="492"/>
      <point x="229" y="479"/>
      <point x="229" y="459" type="curve" smooth="yes"/>
      <point x="229" y="440"/>
      <point x="208" y="426"/>
      <point x="180" y="426" type="curve" smooth="yes"/>
      <point x="155" y="426"/>
      <point x="135" y="442"/>
      <point x="124" y="467" type="curve"/>
      <point x="141" y="484"/>
      <point x="161" y="492"/>
    </contour>
  </outline>
</glyph>
<glyph name="uni2079" format="2">
  <advance width="343"/>
  <unicode hex="2079"/>
  <outline>
    <contour>
      <point x="158" y="707" type="curve" smooth="yes"/>
      <point x="78" y="707"/>
      <point x="19" y="657"/>
      <point x="19" y="590" type="curve" smooth="yes"/>
      <point x="19" y="527"/>
      <point x="69" y="484"/>
      <point x="142" y="484" type="curve" smooth="yes"/>
      <point x="176" y="484"/>
      <point x="206" y="496"/>
      <point x="227" y="517" type="curve"/>
      <point x="223" y="458"/>
      <point x="198" y="429"/>
      <point x="152" y="429" type="curve" smooth="yes"/>
      <point x="121" y="429"/>
      <point x="101" y="436"/>
      <point x="80" y="456" type="curve"/>
      <point x="22" y="388" type="line"/>
      <point x="50" y="362"/>
      <point x="98" y="344"/>
      <point x="144" y="344" type="curve" smooth="yes"/>
      <point x="252" y="344"/>
      <point x="325" y="418"/>
      <point x="325" y="528" type="curve" smooth="yes"/>
      <point x="325" y="635"/>
      <point x="258" y="707"/>
    </contour>
    <contour>
      <point x="157" y="559" type="curve" smooth="yes"/>
      <point x="131" y="559"/>
      <point x="114" y="572"/>
      <point x="114" y="592" type="curve" smooth="yes"/>
      <point x="114" y="611"/>
      <point x="135" y="625"/>
      <point x="163" y="625" type="curve" smooth="yes"/>
      <point x="188" y="625"/>
      <point x="208" y="609"/>
      <point x="219" y="584" type="curve"/>
      <point x="202" y="567"/>
      <point x="182" y="559"/>
    </contour>
  </outline>
</glyph>
<glyph name="uni2080" format="2">
  <advance width="367"/>
  <unicode hex="2080"/>
  <outline>
    <contour>
      <point x="184" y="-5" type="curve" smooth="yes"/>
      <point x="284" y="-5"/>
      <point x="348" y="66"/>
      <point x="348" y="176" type="curve" smooth="yes"/>
      <point x="348" y="284"/>
      <point x="283" y="356"/>
      <point x="184" y="356" type="curve" smooth="yes"/>
      <point x="85" y="356"/>
      <point x="20" y="284"/>
      <point x="20" y="176" type="curve" smooth="yes"/>
      <point x="20" y="66"/>
      <point x="84" y="-5"/>
    </contour>
    <contour>
      <point x="184" y="79" type="curve" smooth="yes"/>
      <point x="140" y="79"/>
      <point x="115" y="115"/>
      <point x="115" y="176" type="curve" smooth="yes"/>
      <point x="115" y="235"/>
      <point x="141" y="272"/>
      <point x="184" y="272" type="curve" smooth="yes"/>
      <point x="227" y="272"/>
      <point x="254" y="235"/>
      <point x="254" y="176" type="curve" smooth="yes"/>
      <point x="254" y="115"/>
      <point x="228" y="79"/>
    </contour>
  </outline>
</glyph>
<glyph name="uni2081" format="2">
  <advance width="207"/>
  <unicode hex="2081"/>
  <outline>
    <contour>
      <point x="92" y="0" type="line"/>
      <point x="190" y="0" type="line"/>
      <point x="190" y="350" type="line"/>
      <point x="129" y="350" type="line"/>
      <point x="15" y="305" type="line"/>
      <point x="15" y="222" type="line"/>
      <point x="92" y="252" type="line"/>
    </contour>
  </outline>
</glyph>
<glyph name="uni2083" format="2">
  <advance width="335"/>
  <unicode hex="2083"/>
  <outline>
    <contour>
      <point x="162" y="-5" type="curve" smooth="yes"/>
      <point x="250" y="-5"/>
      <point x="314" y="39"/>
      <point x="314" y="100" type="curve" smooth="yes"/>
      <point x="314" y="133"/>
      <point x="294" y="159"/>
      <point x="261" y="173" type="curve"/>
      <point x="289" y="192"/>
      <point x="306" y="220"/>
      <point x="306" y="254" type="curve" smooth="yes"/>
      <point x="306" y="315"/>
      <point x="249" y="356"/>
      <point x="165" y="356" type="curve" smooth="yes"/>
      <point x="109" y="356"/>
      <point x="51" y="330"/>
      <point x="16" y="291" type="curve"/>
      <point x="82" y="232" type="line"/>
      <point x="111" y="262"/>
      <point x="129" y="271"/>
      <point x="161" y="271" type="curve" smooth="yes"/>
      <point x="189" y="271"/>
      <point x="208" y="259"/>
      <point x="208" y="241" type="curve" smooth="yes"/>
      <point x="208" y="221"/>
      <point x="188" y="207"/>
      <point x="159" y="207" type="curve" smooth="yes"/>
      <point x="135" y="207" type="line"/>
      <point x="135" y="130" type="line"/>
      <point x="170" y="130" type="line" smooth="yes"/>
      <point x="199" y="130"/>
      <point x="215" y="122"/>
      <point x="215" y="108" type="curve" smooth="yes"/>
      <point x="215" y="90"/>
      <point x="194" y="78"/>
      <point x="161" y="78" type="curve" smooth="yes"/>
      <point x="123" y="78"/>
      <point x="106" y="86"/>
      <point x="80" y="114" type="curve"/>
      <point x="14" y="54" type="line"/>
      <point x="46" y="17"/>
      <point x="102" y="-5"/>
    </contour>
  </outline>
</glyph>
<glyph name="uni2087" format="2">
  <advance width="329"/>
  <unicode hex="2087"/>
  <outline>
    <contour>
      <point x="62" y="0" type="line"/>
      <point x="180" y="0" type="line"/>
      <point x="317" y="279" type="line"/>
      <point x="317" y="350" type="line"/>
      <point x="19" y="350" type="line"/>
      <point x="19" y="266" type="line"/>
      <point x="204" y="266" type="line"/>
    </contour>
  </outline>
</glyph>
<glyph name="uni2088" format="2">
  <advance width="340"/>
  <unicode hex="2088"/>
  <outline>
    <contour>
      <point x="170" y="-6" type="curve" smooth="yes"/>
      <point x="258" y="-6"/>
      <point x="318" y="37"/>
      <point x="318" y="101" type="curve" smooth="yes"/>
      <point x="318" y="134"/>
      <point x="299" y="161"/>
      <point x="269" y="177" type="curve"/>
      <point x="293" y="194"/>
      <point x="309" y="220"/>
      <point x="309" y="250" type="curve" smooth="yes"/>
      <point x="309" y="310"/>
      <point x="249" y="356"/>
      <point x="169" y="356" type="curve" smooth="yes"/>
      <point x="90" y="356"/>
      <point x="31" y="310"/>
      <point x="31" y="250" type="curve" smooth="yes"/>
      <point x="31" y="220"/>
      <point x="47" y="194"/>
      <point x="71" y="177" type="curve"/>
      <point x="41" y="161"/>
      <point x="22" y="134"/>
      <point x="22" y="101" type="curve" smooth="yes"/>
      <point x="22" y="37"/>
      <point x="81" y="-6"/>
    </contour>
    <contour>
      <point x="170" y="210" type="curve" smooth="yes"/>
      <point x="145" y="210"/>
      <point x="127" y="224"/>
      <point x="127" y="243" type="curve" smooth="yes"/>
      <point x="127" y="262"/>
      <point x="145" y="276"/>
      <point x="170" y="276" type="curve" smooth="yes"/>
      <point x="195" y="276"/>
      <point x="213" y="262"/>
      <point x="213" y="243" type="curve" smooth="yes"/>
      <point x="213" y="224"/>
      <point x="194" y="210"/>
    </contour>
    <contour>
      <point x="170" y="74" type="curve" smooth="yes"/>
      <point x="140" y="74"/>
      <point x="120" y="87"/>
      <point x="120" y="107" type="curve" smooth="yes"/>
      <point x="120" y="127"/>
      <point x="140" y="140"/>
      <point x="170" y="140" type="curve" smooth="yes"/>
      <point x="200" y="140"/>
      <point x="220" y="127"/>
      <point x="220" y="107" type="curve" smooth="yes"/>
      <point x="220" y="87"/>
      <point x="200" y="74"/>
    </contour>
  </outline>
</glyph>
<glyph name="Euro" format="2">
  <advance width="796"/>
  <unicode hex="20AC"/>
  <outline>
    <contour>
      <point x="475" y="-11" type="curve" smooth="yes"/>
      <point x="601" y="-11"/>
      <point x="701" y="34"/>
      <point x="766" y="119" type="curve"/>
      <point x="659" y="200" type="line"/>
      <point x="623" y="151"/>
      <point x="552" y="120"/>
      <point x="476" y="120" type="curve" smooth="yes"/>
      <point x="382" y="120"/>
      <point x="311" y="167"/>
      <point x="278" y="245" type="curve"/>
      <point x="442" y="245" type="line"/>
      <point x="473" y="323" type="line"/>
      <point x="259" y="323" type="line"/>
      <point x="258" y="332"/>
      <point x="258" y="341"/>
      <point x="258" y="350" type="curve" smooth="yes"/>
      <point x="258" y="359"/>
      <point x="258" y="368"/>
      <point x="259" y="376" type="curve"/>
      <point x="492" y="376" type="line"/>
      <point x="523" y="455" type="line"/>
      <point x="278" y="455" type="line"/>
      <point x="311" y="533"/>
      <point x="382" y="580"/>
      <point x="476" y="580" type="curve" smooth="yes"/>
      <point x="553" y="580"/>
      <point x="622" y="549"/>
      <point x="658" y="499" type="curve"/>
      <point x="766" y="581" type="line"/>
      <point x="703" y="666"/>
      <point x="602" y="711"/>
      <point x="475" y="711" type="curve" smooth="yes"/>
      <point x="296" y="711"/>
      <point x="162" y="610"/>
      <point x="120" y="455" type="curve"/>
      <point x="36" y="455" type="line"/>
      <point x="36" y="376" type="line"/>
      <point x="108" y="376" type="line"/>
      <point x="107" y="368"/>
      <point x="107" y="359"/>
      <point x="107" y="350" type="curve" smooth="yes"/>
      <point x="107" y="341"/>
      <point x="107" y="332"/>
      <point x="108" y="323" type="curve"/>
      <point x="36" y="323" type="line"/>
      <point x="36" y="245" type="line"/>
      <point x="120" y="245" type="line"/>
      <point x="162" y="90"/>
      <point x="297" y="-11"/>
    </contour>
  </outline>
</glyph>
<glyph name="trademark" format="2">
  <advance width="694"/>
  <unicode hex="2122"/>
  <outline>
    <contour>
      <point x="329" y="421" type="line"/>
      <point x="403" y="421" type="line"/>
      <point x="402" y="606" type="line"/>
      <point x="493" y="438" type="line"/>
      <point x="583" y="607" type="line"/>
      <point x="581" y="421" type="line"/>
      <point x="658" y="421" type="line"/>
      <point x="658" y="700" type="line"/>
      <point x="561" y="700" type="line"/>
      <point x="493" y="565" type="line"/>
      <point x="426" y="700" type="line"/>
      <point x="329" y="700" type="line"/>
    </contour>
    <contour>
      <point x="114" y="421" type="line"/>
      <point x="196" y="421" type="line"/>
      <point x="196" y="633" type="line"/>
      <point x="287" y="633" type="line"/>
      <point x="287" y="700" type="line"/>
      <point x="23" y="700" type="line"/>
      <point x="23" y="633" type="line"/>
      <point x="114" y="633" type="line"/>
    </contour>
  </outline>
</glyph>
<glyph name="uniFFFD" format="2">
  <advance width="514"/>
  <unicode hex="FFFD"/>
  <outline>
    <contour>
      <point x="60" y="-100" type="line"/>
      <point x="454" y="-100" type="line"/>
      <point x="454" y="750" type="line"/>
      <point x="60" y="750" type="line"/>
    </contour>
  </outline>
</glyph>
<glyph name="aogonek.school" format="2">
  <advance width="648"/>
  <outline>
    <contour>
      <point x="531" y="-221" type="curve" smooth="yes"/>
      <point x="563" y="-221"/>
      <point x="595" y="-212"/>
      <point x="618" y="-198" type="curve"/>
      <point x="597" y="-128" type="line"/>
      <point x="587" y="-135"/>
      <point x="573" y="-139"/>
      <point x="561" y="-139" type="curve" smooth="yes"/>
      <point x="532" y="-139"/>
      <point x="514" y="-124"/>
      <point x="514" y="-98" type="curve" smooth="yes"/>
      <point x="514" y="-64"/>
      <point x="540" y="-33"/>
      <point x="598" y="0" type="curve"/>
      <point x="598" y="529" type="line"/>
      <point x="436" y="529" type="line"/>
      <point x="436" y="501" type="line"/>
      <point x="396" y="524"/>
      <point x="350" y="536"/>
      <point x="301" y="536" type="curve" smooth="yes"/>
      <point x="147" y="536"/>
      <point x="26" y="417"/>
      <point x="26" y="265" type="curve" smooth="yes"/>
      <point x="26" y="113"/>
      <point x="145" y="-7"/>
      <point x="296" y="-7" type="curve" smooth="yes"/>
      <point x="348" y="-7"/>
      <point x="397" y="9"/>
      <point x="438" y="39" type="curve"/>
      <point x="438" y="0" type="line"/>
      <point x="510" y="0" type="line"/>
      <point x="450" y="-38"/>
      <point x="423" y="-78"/>
      <point x="423" y="-127" type="curve" smooth="yes"/>
      <point x="423" y="-183"/>
      <point x="466" y="-221"/>
    </contour>
    <contour>
      <point x="185" y="265" type="curve" smooth="yes"/>
      <point x="185" y="341"/>
      <point x="245" y="399"/>
      <point x="324" y="399" type="curve" smooth="yes"/>
      <point x="368" y="399"/>
      <point x="408" y="384"/>
      <point x="436" y="358" type="curve"/>
      <point x="436" y="173" type="line"/>
      <point x="407" y="145"/>
      <point x="369" y="131"/>
      <point x="324" y="131" type="curve" smooth="yes"/>
      <point x="246" y="131"/>
      <point x="185" y="189"/>
    </contour>
  </outline>
</glyph>
<glyph name="caronSlovak" format="2">
  <advance width="600"/>
  <outline>
    <contour>
      <point x="321" y="498" type="line"/>
      <point x="410" y="498" type="line"/>
      <point x="450" y="725" type="line"/>
      <point x="325" y="700" type="line"/>
    </contour>
  </outline>
</glyph>
<glyph name="commaaccent" format="2">
  <advance width="600"/>
  <guideline x="299" y="-6" angle="90.0" identifier="TB9epO5wox"/>
  <outline>
    <contour>
      <point x="169" y="-295" type="line"/>
      <point x="286" y="-295" type="line"/>
      <point x="375" y="-80" type="line"/>
      <point x="224" y="-80" type="line"/>
    </contour>
  </outline>
</glyph>
<glyph name="g.alt" format="2">
  <advance width="627"/>
  <note>
Version created Sun Jan 13 16:53:00 2019
</note>
  <anchor x="298" y="529" name="top"/>
  <outline>
    <contour>
      <point x="288" y="-214" type="curve" smooth="yes"/>
      <point x="489" y="-214"/>
      <point x="617" y="-144"/>
      <point x="617" y="-33" type="curve" smooth="yes"/>
      <point x="617" y="44"/>
      <point x="552" y="92"/>
      <point x="445" y="94" type="curve" smooth="yes"/>
      <point x="273" y="97" type="line" smooth="yes"/>
      <point x="237" y="98"/>
      <point x="220" y="108"/>
      <point x="220" y="127" type="curve" smooth="yes"/>
      <point x="220" y="135"/>
      <point x="224" y="141"/>
      <point x="231" y="146" type="curve"/>
      <point x="252" y="142"/>
      <point x="275" y="139"/>
      <point x="298" y="139" type="curve" smooth="yes"/>
      <point x="436" y="139"/>
      <point x="543" y="227"/>
      <point x="543" y="339" type="curve" smooth="yes"/>
      <point x="543" y="375"/>
      <point x="532" y="408"/>
      <point x="513" y="437" type="curve"/>
      <point x="535" y="444"/>
      <point x="558" y="447"/>
      <point x="583" y="447" type="curve" smooth="yes"/>
      <point x="598" y="447"/>
      <point x="614" y="446"/>
      <point x="623" y="444" type="curve"/>
      <point x="621" y="562" type="line"/>
      <point x="612" y="566"/>
      <point x="600" y="568"/>
      <point x="585" y="568" type="curve" smooth="yes"/>
      <point x="535" y="568"/>
      <point x="492" y="543"/>
      <point x="457" y="493" type="curve"/>
      <point x="414" y="522"/>
      <point x="359" y="539"/>
      <point x="298" y="539" type="curve" smooth="yes"/>
      <point x="160" y="539"/>
      <point x="53" y="451"/>
      <point x="53" y="339" type="curve" smooth="yes"/>
      <point x="53" y="272"/>
      <point x="91" y="214"/>
      <point x="151" y="178" type="curve"/>
      <point x="108" y="157"/>
      <point x="82" y="122"/>
      <point x="82" y="79" type="curve" smooth="yes"/>
      <point x="82" y="49"/>
      <point x="93" y="24"/>
      <point x="115" y="5" type="curve"/>
      <point x="56" y="-12"/>
      <point x="17" y="-48"/>
      <point x="17" y="-91" type="curve" smooth="yes"/>
      <point x="17" y="-172"/>
      <point x="110" y="-214"/>
    </contour>
    <contour>
      <point x="298" y="257" type="curve" smooth="yes"/>
      <point x="244" y="257"/>
      <point x="204" y="292"/>
      <point x="204" y="339" type="curve" smooth="yes"/>
      <point x="204" y="386"/>
      <point x="244" y="421"/>
      <point x="298" y="421" type="curve" smooth="yes"/>
      <point x="352" y="421"/>
      <point x="392" y="386"/>
      <point x="392" y="339" type="curve" smooth="yes"/>
      <point x="392" y="292"/>
      <point x="352" y="257"/>
    </contour>
    <contour>
      <point x="288" y="-116" type="curve" smooth="yes"/>
      <point x="201" y="-116"/>
      <point x="162" y="-102"/>
      <point x="162" y="-70" type="curve" smooth="yes"/>
      <point x="162" y="-52"/>
      <point x="178" y="-39"/>
      <point x="203" y="-33" type="curve"/>
      <point x="225" y="-37"/>
      <point x="249" y="-40"/>
      <point x="276" y="-40" type="curve" smooth="yes"/>
      <point x="420" y="-42" type="line" smooth="yes"/>
      <point x="443" y="-42"/>
      <point x="455" y="-51"/>
      <point x="455" y="-66" type="curve" smooth="yes"/>
      <point x="455" y="-97"/>
      <point x="392" y="-116"/>
    </contour>
  </outline>
</glyph>
<glyph name="one.tab" format="2">
  <advance width="600"/>
  <guideline x="52" y="176" angle="90.0" identifier="zWHZDg1UEt"/>
  <outline>
    <contour>
      <point x="52" y="0" type="line"/>
      <point x="555" y="0" type="line"/>
      <point x="555" y="131" type="line"/>
      <point x="383" y="131" type="line"/>
      <point x="383" y="700" type="line"/>
      <point x="286" y="700" type="line"/>
      <point x="52" y="603" type="line"/>
      <point x="52" y="467" type="line"/>
      <point x="229" y="540" type="line"/>
      <point x="229" y="131" type="line"/>
      <point x="52" y="131" type="line"/>
    </contour>
  </outline>
</glyph>
